<svg width="227" height="128" viewBox="0 0 227 128" fill="none" xmlns="http://www.w3.org/2000/svg">
<g filter="url(#filter0_d_3001_4420)">
<rect x="50" y="50" width="127" height="28" rx="14" fill="white"/>
</g>
<path d="M80 78C80 80.7614 76.866 83 73 83C69.134 83 66 80.7614 66 78C66 75.2386 69.134 73 73 73C76.866 73 80 75.2386 80 78Z" fill="#FEFEFE"/>
<path d="M82 86C82 87.6569 80.6569 89 79 89C77.3431 89 76 87.6569 76 86C76 84.3431 77.3431 83 79 83C80.6569 83 82 84.3431 82 86Z" fill="#FEFEFE"/>
<defs>
<filter id="filter0_d_3001_4420" x="0" y="0" width="227" height="128" filterUnits="userSpaceOnUse" color-interpolation-filters="sRGB">
<feFlood flood-opacity="0" result="BackgroundImageFix"/>
<feColorMatrix in="SourceAlpha" type="matrix" values="0 0 0 0 0 0 0 0 0 0 0 0 0 0 0 0 0 0 127 0" result="hardAlpha"/>
<feOffset/>
<feGaussianBlur stdDeviation="25"/>
<feComposite in2="hardAlpha" operator="out"/>
<feColorMatrix type="matrix" values="0 0 0 0 0 0 0 0 0 0 0 0 0 0 0 0 0 0 0.17 0"/>
<feBlend mode="normal" in2="BackgroundImageFix" result="effect1_dropShadow_3001_4420"/>
<feBlend mode="normal" in="SourceGraphic" in2="effect1_dropShadow_3001_4420" result="shape"/>
</filter>
</defs>
</svg>
