<svg width="24" height="24" viewBox="0 0 24 24" fill="none" xmlns="http://www.w3.org/2000/svg">
<g clip-path="url(#clip0_470_7974)">
<path d="M6.39999 12L11.2 16L17.6 8.00005M12 23.2C10.5292 23.2 9.07278 22.9104 7.71393 22.3475C6.35509 21.7846 5.12041 20.9597 4.08039 19.9196C3.04038 18.8796 2.21539 17.645 1.65254 16.2861C1.08968 14.9273 0.799988 13.4709 0.799988 12C0.799988 10.5292 1.08968 9.07284 1.65254 7.71399C2.21539 6.35515 3.04038 5.12047 4.08039 4.08045C5.12041 3.04044 6.35509 2.21545 7.71393 1.6526C9.07278 1.08975 10.5292 0.800049 12 0.800049C14.9704 0.800049 17.8192 1.98005 19.9196 4.08045C22.02 6.18086 23.2 9.02962 23.2 12C23.2 14.9705 22.02 17.8192 19.9196 19.9196C17.8192 22.0201 14.9704 23.2 12 23.2Z" stroke="url(#paint0_linear_470_7974)" stroke-width="1.5"/>
</g>
<defs>
<linearGradient id="paint0_linear_470_7974" x1="45.8074" y1="28.3852" x2="21.0812" y2="47.1631" gradientUnits="userSpaceOnUse">
<stop offset="0.160244" stop-color="#8663F6"/>
<stop offset="0.535257" stop-color="#C470F5"/>
<stop offset="0.922419" stop-color="#57C2FF"/>
</linearGradient>
<clipPath id="clip0_470_7974">
<rect width="24" height="24" fill="white"/>
</clipPath>
</defs>
</svg>
