<svg width="32" height="32" viewBox="0 0 32 32" fill="none" xmlns="http://www.w3.org/2000/svg">
<path d="M8.00243 10C6.8351 10.19 5.97562 10.5395 5.27899 11.1823C3.75211 12.591 3.53894 14.9183 3.11258 19.5729L2.67687 24.3297C2.51154 26.6732 4.34469 28.6667 6.66515 28.6667H7.66073C9.29571 28.6667 10.766 27.6588 11.3732 26.1217L12.363 23.6161C12.6877 22.7941 12.8501 22.3832 13.1887 22.1512C13.5273 21.9191 13.9646 21.9191 14.8392 21.9191H17.1605C18.035 21.9191 18.4724 21.9191 18.811 22.1512C19.1496 22.3832 19.312 22.7941 19.6366 23.6161L20.6265 26.1217C21.2337 27.6588 22.704 28.6667 24.3389 28.6667H25.3345C27.655 28.6667 29.4881 26.6732 29.3228 24.3297L28.8912 19.5807C28.4678 14.9227 28.2561 12.5936 26.7289 11.1836C26.032 10.54 25.1717 10.1902 24.003 10" stroke="#707070" stroke-width="1.5" stroke-linecap="round" stroke-linejoin="round"/>
<path d="M22.6665 16.6667H22.6785" stroke="#707070" stroke-width="1.5" stroke-linecap="round" stroke-linejoin="round"/>
<path d="M9.33301 16.6667H9.34498" stroke="#707070" stroke-width="1.5" stroke-linecap="round" stroke-linejoin="round"/>
<path d="M15.9972 3.3333L16.3412 4.26267C16.7921 5.48132 17.0176 6.09066 17.4621 6.53515C17.9065 6.97966 18.5158 7.20512 19.7345 7.65607L20.6638 7.99996L19.7345 8.34386C18.5158 8.7948 17.9065 9.02028 17.4621 9.46478C17.0176 9.90927 16.7921 10.5186 16.3412 11.7373L15.9972 12.6666L15.6533 11.7373C15.2024 10.5186 14.9769 9.90927 14.5324 9.46478C14.088 9.02027 13.4786 8.7948 12.2599 8.34386L11.3306 7.99996L12.2599 7.65607C13.4786 7.20512 14.088 6.97966 14.5324 6.53515C14.9769 6.09066 15.2024 5.48132 15.6533 4.26267L15.9972 3.3333Z" stroke="#707070" stroke-width="1.5" stroke-linejoin="round"/>
</svg>
