<svg width="24" height="24" viewBox="0 0 24 24" fill="none" xmlns="http://www.w3.org/2000/svg">
<path d="M11.5984 10.56C11.4911 10.6673 11.4375 10.8011 11.4375 10.9616V15.6866L9.47325 13.7224C9.36825 13.6174 9.23925 13.5611 9.08625 13.5536C8.93325 13.5461 8.79675 13.6024 8.67675 13.7224C8.55675 13.8424 8.49675 13.9751 8.49675 14.1206C8.49675 14.2661 8.55675 14.3989 8.67675 14.5189L11.3644 17.2054C11.5459 17.3869 11.7577 17.4776 12 17.4776C12.2423 17.4776 12.4545 17.3869 12.6368 17.2054L15.3233 14.5189C15.4283 14.4131 15.4845 14.2838 15.492 14.1307C15.4995 13.9777 15.4433 13.8416 15.3233 13.7224C15.2033 13.6031 15.0705 13.5431 14.925 13.5424C14.7795 13.5416 14.6468 13.6016 14.5268 13.7224L12.5625 15.6866V10.9616C12.5625 10.8019 12.5089 10.668 12.4016 10.56C12.2944 10.452 12.1605 10.3984 12 10.3991C11.8395 10.3999 11.7056 10.4535 11.5984 10.56ZM4.125 7.284V19.1831C4.125 19.3849 4.18987 19.5506 4.31962 19.6804C4.44937 19.8101 4.6155 19.875 4.818 19.875H19.1831C19.3849 19.875 19.5506 19.8101 19.6804 19.6804C19.8101 19.5506 19.875 19.3849 19.875 19.1831V7.284H4.125ZM4.99125 21C4.48725 21 4.02937 20.7941 3.61762 20.3824C3.20587 19.9706 3 19.5131 3 19.0099V6.92175C3 6.70275 3.03487 6.4965 3.10462 6.303C3.17437 6.1095 3.27938 5.93138 3.41963 5.76863L5.17238 3.66488C5.33513 3.44513 5.53875 3.27938 5.78325 3.16763C6.02775 3.05588 6.28987 3 6.56962 3H17.3876C17.6666 3 17.9321 3.05588 18.1841 3.16763C18.4361 3.27938 18.6435 3.44475 18.8062 3.66375L20.5804 5.8125C20.7206 5.97525 20.8256 6.15713 20.8954 6.35813C20.9651 6.55838 21 6.76838 21 6.98813V19.0087C21 19.512 20.7941 19.9695 20.3824 20.3813C19.9706 20.793 19.5131 20.9989 19.0099 20.9989L4.99125 21ZM4.5525 6.159H19.425L17.9288 4.36125C17.856 4.28925 17.7728 4.23188 17.679 4.18913C17.5852 4.14638 17.4878 4.125 17.3865 4.125H6.591C6.4905 4.125 6.393 4.14675 6.2985 4.19025C6.204 4.23375 6.1215 4.2915 6.051 4.3635L4.5525 6.159Z" fill="#5C5B5F"/>
</svg>
