<svg width="20" height="20" viewBox="0 0 20 20" fill="none" xmlns="http://www.w3.org/2000/svg">
<g clip-path="url(#clip0_780_19340)">
<path d="M14.1666 2.0835H2.91665C1.76605 2.0835 0.833313 3.01624 0.833313 4.16683V15.0002C0.833313 16.1508 1.76605 17.0835 2.91665 17.0835H14.1666C15.3172 17.0835 16.25 16.1508 16.25 15.0002V4.16683C16.25 3.01624 15.3172 2.0835 14.1666 2.0835Z" fill="#EFF3F9"/>
<path d="M16.25 10.6293V15.0002C16.25 15.2502 16.2083 15.4877 16.125 15.7085C15.8375 16.5085 15.0666 17.0835 14.1666 17.0835H2.91665C1.76665 17.0835 0.833313 16.1502 0.833313 15.0002V4.16683C0.833313 3.26683 1.40831 2.496 2.20831 2.2085C2.12498 2.42933 2.08331 2.66683 2.08331 2.91683V14.5835C2.08331 15.2752 2.64165 15.8335 3.33331 15.8335H9.06248C8.86248 15.3168 8.74998 14.7543 8.74998 14.1668C8.74998 11.6335 10.8 9.5835 13.3333 9.5835C14.4416 9.5835 15.4583 9.97516 16.25 10.6293Z" fill="#CFE0F3"/>
<path d="M14.1666 2.0835H2.91665C1.76623 2.0835 0.833313 3.01641 0.833313 4.16683V6.25016H16.25V4.16683C16.25 3.01641 15.3171 2.0835 14.1666 2.0835Z" fill="#0588E2"/>
<path d="M2.08331 2.91678C2.08331 2.66887 2.13415 2.43428 2.21373 2.21387C1.41081 2.50303 0.833313 3.26428 0.833313 4.16678V6.25012H2.08331V2.91678Z" fill="#0075D3"/>
<path d="M4.99998 7.9165H4.16665C3.70641 7.9165 3.33331 8.2896 3.33331 8.74984V9.58317C3.33331 10.0434 3.70641 10.4165 4.16665 10.4165H4.99998C5.46022 10.4165 5.83331 10.0434 5.83331 9.58317V8.74984C5.83331 8.2896 5.46022 7.9165 4.99998 7.9165Z" fill="#AECEE8"/>
<path d="M8.74998 7.9165H7.91665C7.45641 7.9165 7.08331 8.2896 7.08331 8.74984V9.58317C7.08331 10.0434 7.45641 10.4165 7.91665 10.4165H8.74998C9.21022 10.4165 9.58331 10.0434 9.58331 9.58317V8.74984C9.58331 8.2896 9.21022 7.9165 8.74998 7.9165Z" fill="#AECEE8"/>
<path d="M12.5 7.9165H11.6666C11.2064 7.9165 10.8333 8.2896 10.8333 8.74984V9.58317C10.8333 10.0434 11.2064 10.4165 11.6666 10.4165H12.5C12.9602 10.4165 13.3333 10.0434 13.3333 9.58317V8.74984C13.3333 8.2896 12.9602 7.9165 12.5 7.9165Z" fill="#AECEE8"/>
<path d="M11.6667 10.4168H12.5C12.9604 10.4168 13.3333 10.0439 13.3333 9.5835C12.5142 9.5835 11.7471 9.80058 11.0817 10.1764C11.2321 10.3247 11.4383 10.4168 11.6667 10.4168Z" fill="#7EAFD0"/>
<path d="M4.99998 12.0835H4.16665C3.70641 12.0835 3.33331 12.4566 3.33331 12.9168V13.7502C3.33331 14.2104 3.70641 14.5835 4.16665 14.5835H4.99998C5.46022 14.5835 5.83331 14.2104 5.83331 13.7502V12.9168C5.83331 12.4566 5.46022 12.0835 4.99998 12.0835Z" fill="#AECEE8"/>
<path d="M8.74998 12.0835H7.91665C7.45641 12.0835 7.08331 12.4566 7.08331 12.9168V13.7502C7.08331 14.2104 7.45641 14.5835 7.91665 14.5835H8.74998C9.21022 14.5835 9.58331 14.2104 9.58331 13.7502V12.9168C9.58331 12.4566 9.21022 12.0835 8.74998 12.0835Z" fill="#AECEE8"/>
<path d="M8.76958 14.5812C9.22042 14.5703 9.58333 14.2032 9.58333 13.7499V12.9166C9.58333 12.6191 9.42625 12.3595 9.19125 12.2124C8.91125 12.8057 8.75 13.4666 8.75 14.1666C8.75 14.3066 8.7575 14.4445 8.76958 14.5812Z" fill="#7EAFD0"/>
<path d="M14.5833 19.1667C17.1146 19.1667 19.1667 17.1146 19.1667 14.5833C19.1667 12.052 17.1146 10 14.5833 10C12.052 10 10 12.052 10 14.5833C10 17.1146 12.052 19.1667 14.5833 19.1667Z" fill="#0588E2"/>
<path d="M14.5833 18.3335C16.6544 18.3335 18.3333 16.6546 18.3333 14.5835C18.3333 12.5124 16.6544 10.8335 14.5833 10.8335C12.5122 10.8335 10.8333 12.5124 10.8333 14.5835C10.8333 16.6546 12.5122 18.3335 14.5833 18.3335Z" fill="#EFF3F9"/>
<path d="M14.5833 10.8335C13.4417 10.8335 12.4213 11.3452 11.7333 12.1502C12.3883 11.5902 13.2371 11.2502 14.1667 11.2502C16.2379 11.2502 17.9167 12.9289 17.9167 15.0002C17.9167 15.9297 17.5767 16.7785 17.0167 17.4335C17.8217 16.7456 18.3333 15.7252 18.3333 14.5835C18.3333 12.5122 16.6546 10.8335 14.5833 10.8335Z" fill="#CFE0F3"/>
<path d="M5.83333 1.87516C5.83333 1.29987 5.36696 0.833496 4.79167 0.833496C4.21637 0.833496 3.75 1.29987 3.75 1.87516V3.12516C3.75 3.70046 4.21637 4.16683 4.79167 4.16683C5.36696 4.16683 5.83333 3.70046 5.83333 3.12516V1.87516Z" fill="#FFC343"/>
<path d="M13.3333 1.87516C13.3333 1.29987 12.867 0.833496 12.2917 0.833496C11.7164 0.833496 11.25 1.29987 11.25 1.87516V3.12516C11.25 3.70046 11.7164 4.16683 12.2917 4.16683C12.867 4.16683 13.3333 3.70046 13.3333 3.12516V1.87516Z" fill="#FFC343"/>
<path d="M5.625 3.33337C5.04958 3.33337 4.58333 2.86712 4.58333 2.29171V1.04171C4.58333 0.976706 4.59125 0.913789 4.6025 0.852539C4.11792 0.941706 3.75 1.36462 3.75 1.87504V3.12504C3.75 3.70046 4.21625 4.16671 4.79167 4.16671C5.30208 4.16671 5.725 3.79879 5.81417 3.31421C5.7525 3.32546 5.68958 3.33337 5.625 3.33337Z" fill="#FFA221"/>
<path d="M13.125 3.33337C12.5496 3.33337 12.0833 2.86712 12.0833 2.29171V1.04171C12.0833 0.976706 12.0912 0.913789 12.1025 0.852539C11.6179 0.941706 11.25 1.36462 11.25 1.87504V3.12504C11.25 3.70046 11.7163 4.16671 12.2917 4.16671C12.8021 4.16671 13.225 3.79879 13.3142 3.31421C13.2525 3.32546 13.1896 3.33337 13.125 3.33337Z" fill="#FFA221"/>
<path d="M15.4167 15.8335C15.31 15.8335 15.2034 15.7927 15.1221 15.7114L14.2888 14.8781C14.2104 14.7997 14.1667 14.6939 14.1667 14.5835V12.5002C14.1667 12.2702 14.3529 12.0835 14.5834 12.0835C14.8138 12.0835 15 12.2702 15 12.5002V14.411L15.7113 15.1222C15.8742 15.2852 15.8742 15.5485 15.7113 15.7114C15.63 15.7927 15.5234 15.8335 15.4167 15.8335Z" fill="#0D3B8D"/>
</g>
<defs>
<clipPath id="clip0_780_19340">
<rect width="20" height="20" fill="white"/>
</clipPath>
</defs>
</svg>
