<svg width="20" height="20" viewBox="0 0 20 20" fill="none" xmlns="http://www.w3.org/2000/svg">
<path d="M10.5812 2.91699H9.41916C8.82366 2.91699 8.52591 2.91699 8.25888 3.01033C8.09582 3.06732 7.9426 3.14932 7.80473 3.25338C7.57894 3.42379 7.41378 3.67153 7.08348 4.16699C6.91431 4.42076 6.66494 4.7948 6.56555 4.89925C6.31928 5.15805 5.99635 5.33088 5.6444 5.39223C5.50236 5.41699 5.34987 5.41699 5.04488 5.41699C4.22815 5.41699 3.81979 5.41699 3.48588 5.51151C2.65061 5.74796 1.99778 6.40078 1.76133 7.23607C1.66681 7.56997 1.66681 7.97833 1.66681 8.79508V12.0837C1.66681 14.4407 1.66681 15.6192 2.39904 16.3514C3.13128 17.0837 4.30979 17.0837 6.66681 17.0837H13.3335C15.6905 17.0837 16.869 17.0837 17.6012 16.3514C18.3335 15.6192 18.3335 14.4407 18.3335 12.0837V8.79508C18.3335 7.97833 18.3335 7.56997 18.239 7.23607C18.0025 6.40078 17.3497 5.74796 16.5144 5.51151C16.1805 5.41699 15.7722 5.41699 14.9554 5.41699C14.6504 5.41699 14.4979 5.41699 14.3559 5.39223C14.0039 5.33088 13.681 5.15805 13.4347 4.89925C13.3353 4.79479 13.086 4.42075 12.9168 4.16699C12.5865 3.67153 12.4213 3.42379 12.1956 3.25338C12.0577 3.14932 11.9045 3.06732 11.7414 3.01033C11.4744 2.91699 11.1767 2.91699 10.5812 2.91699Z" stroke="#63B9FF" stroke-width="1.5" stroke-linecap="round" stroke-linejoin="round"/>
<path d="M13.3335 10.8333C13.3335 12.6742 11.8411 14.1667 10.0002 14.1667C8.15919 14.1667 6.66681 12.6742 6.66681 10.8333C6.66681 8.99242 8.15919 7.5 10.0002 7.5C11.8411 7.5 13.3335 8.99242 13.3335 10.8333Z" stroke="#63B9FF" stroke-width="1.5" stroke-linecap="round" stroke-linejoin="round"/>
<path d="M15.8335 7.91699V7.92533" stroke="#63B9FF" stroke-width="2" stroke-linecap="round" stroke-linejoin="round"/>
</svg>
