<svg width="67" height="81" viewBox="0 0 67 81" fill="none" xmlns="http://www.w3.org/2000/svg">
<path d="M33.249 1.3877C41.6993 1.3877 49.8041 4.74451 55.7793 10.7197C61.7544 16.6948 65.1112 24.799 65.1113 33.249C65.1113 44.081 59.203 53.0436 52.7959 59.5938C49.5993 62.8256 46.1115 65.756 42.377 68.3477L40.8027 69.4189L40.0996 69.8867L38.7061 70.7734L37.5127 71.502L35.9863 72.3906C35.1527 72.8664 34.2089 73.1162 33.249 73.1162C32.4093 73.1161 31.5821 72.9252 30.8301 72.5586L30.5127 72.3906L29.0107 71.5166L27.124 70.3564L26.415 69.8945L24.9121 68.8936C21.1336 66.3363 17.5977 63.4388 14.3486 60.2373L13.7021 59.5928C7.29503 53.0387 1.3877 44.0802 1.3877 33.249C1.3878 24.7989 4.74461 16.6948 10.7197 10.7197C16.6948 4.74461 24.7989 1.3878 33.249 1.3877ZM33.249 20.7783C31.6115 20.7784 29.9895 21.1009 28.4766 21.7275C26.9636 22.3543 25.5886 23.2727 24.4307 24.4307C23.2727 25.5886 22.3543 26.9636 21.7275 28.4766C21.1009 29.9895 20.7784 31.6115 20.7783 33.249C20.7783 34.8866 21.1009 36.5086 21.7275 38.0215C22.3542 39.5344 23.2728 40.9094 24.4307 42.0674C25.5886 43.2254 26.9636 44.1448 28.4766 44.7715C29.9895 45.3982 31.6115 45.7207 33.249 45.7207C36.5565 45.7207 39.7286 44.4061 42.0674 42.0674C44.4061 39.7286 45.7207 36.5565 45.7207 33.249C45.7206 29.9417 44.406 26.7693 42.0674 24.4307C39.7287 22.0922 36.5563 20.7783 33.249 20.7783Z" fill="url(#paint0_linear_3035_5922)" stroke="white" stroke-width="2.7756"/>
<defs>
<linearGradient id="paint0_linear_3035_5922" x1="133.613" y1="91.7507" x2="54.31" y2="145.505" gradientUnits="userSpaceOnUse">
<stop offset="0.160244" stop-color="#8663F6"/>
<stop offset="0.535257" stop-color="#C470F5"/>
<stop offset="0.922419" stop-color="#57C2FF"/>
</linearGradient>
</defs>
</svg>
