<svg width="20" height="20" viewBox="0 0 20 20" fill="none" xmlns="http://www.w3.org/2000/svg">
<path d="M15.2087 8.75H16.3669C17.9098 8.75 18.3684 8.97125 18.3312 10.0698C18.2697 11.8895 17.4492 14.0039 14.1667 14.5833" stroke="#707070" stroke-width="1.25" stroke-linecap="round"/>
<path d="M4.95521 17.1784C2.1432 15.0163 1.72889 11.9498 1.66785 8.74976C1.64148 7.36742 2.04271 7.08301 3.88265 7.08301H12.784C14.6239 7.08301 15.0252 7.36742 14.9988 8.74976C14.9377 11.9498 14.5234 15.0163 11.7114 17.1784C10.9112 17.7937 10.2359 17.9163 9.09949 17.9163H7.56719C6.43071 17.9163 5.75547 17.7937 4.95521 17.1784Z" stroke="#707070" stroke-width="1.25" stroke-linecap="round"/>
<path d="M9.42409 2.08301C8.96851 2.36518 8.33434 3.33301 8.33434 4.58301M6.2831 3.33301C6.2831 3.33301 5.83334 3.74967 5.83334 4.58301M11.6677 3.33301C11.4399 3.47409 11.25 4.16634 11.25 4.58301" stroke="#707070" stroke-width="1.25" stroke-linecap="round" stroke-linejoin="round"/>
</svg>
