<svg width="16" height="16" viewBox="0 0 16 16" fill="none" xmlns="http://www.w3.org/2000/svg">
<g clip-path="url(#clip0_553_6402)">
<path d="M15.9026 7.36391C15.8289 7.12203 15.7161 6.89547 15.5673 6.69109C15.3473 6.38734 15.0604 6.15516 14.7139 6.00047C14.4629 5.88922 14.1858 5.81984 13.8695 5.78797C13.8858 5.54859 13.8945 5.30641 13.8945 5.06078C13.8945 4.07422 13.1823 3.15797 11.8892 2.48078C10.6473 1.83078 9.00607 1.47266 7.26795 1.47266C5.52951 1.47266 3.88826 1.83078 2.64639 2.48078C1.35295 3.15766 0.640762 4.07391 0.640762 5.06078V5.06141V5.06172C0.640762 6.19141 0.814199 7.25703 1.15607 8.22922C1.40295 8.93141 1.73295 9.57234 2.14045 10.1427C0.756387 10.6123 -0.000488281 11.2573 -0.000488281 11.9773C-0.000488281 12.7192 0.769824 13.3639 2.22732 13.8414C3.57732 14.2836 5.36732 14.5273 7.26795 14.5273C9.16826 14.5273 10.9579 14.2839 12.3079 13.8414C13.7654 13.3639 14.5358 12.7192 14.5358 11.9773C14.5358 11.6298 14.3551 11.1492 13.5873 10.6789C13.6564 10.6589 13.7254 10.638 13.7942 10.6148C15.0351 10.2023 15.7842 9.45109 15.9604 8.44141C15.9808 8.32328 15.9933 8.21297 15.9983 8.11234C16.0092 7.86016 15.977 7.60828 15.9026 7.36391ZM13.6586 7.44172C13.8176 7.45422 13.9408 7.48078 14.0373 7.52422C14.1123 7.55703 14.1714 7.60422 14.2176 7.66734C14.2567 7.72172 14.2867 7.78266 14.3064 7.84703C14.3251 7.91016 14.3329 7.97391 14.3298 8.03859C14.327 8.10703 14.3226 8.13953 14.3201 8.15359C14.2383 8.62078 13.7042 8.89047 13.2708 9.03453C13.1873 9.06234 13.1001 9.08797 13.0095 9.11141C13.1483 8.82922 13.272 8.53484 13.3798 8.22891C13.4701 7.97172 13.5486 7.70797 13.6151 7.43828C13.6295 7.43953 13.6442 7.44047 13.6586 7.44172ZM2.87857 2.92453C4.05014 2.31109 5.6092 1.97359 7.26826 1.97359C8.92701 1.97359 10.4858 2.31141 11.6573 2.92453C12.7773 3.51078 13.3942 4.26953 13.3942 5.06109C13.3942 5.85266 12.7773 6.61109 11.6573 7.19766C10.4858 7.81109 8.92701 8.14859 7.26826 8.14859C5.6092 8.14859 4.05045 7.81078 2.87857 7.19766C1.75826 6.61141 1.14139 5.85266 1.14139 5.06109C1.14139 4.26953 1.75826 3.51078 2.87857 2.92453ZM2.64639 7.64078C3.88857 8.29078 5.52982 8.64891 7.26795 8.64891C9.00607 8.64891 10.6473 8.29078 11.8892 7.64078C12.4745 7.33453 12.9401 6.97891 13.2751 6.59016C13.1133 7.60359 12.7904 8.52266 12.3354 9.31359C12.3233 9.32984 12.313 9.34766 12.3048 9.36672C12.0583 9.78641 11.7742 10.1695 11.4567 10.5105C11.4251 10.5314 11.3986 10.5592 11.3792 10.5917C10.3158 11.693 8.8942 12.3355 7.26795 12.3355C5.43889 12.3355 3.86857 11.5236 2.77545 10.1598C2.76076 10.1308 2.74076 10.1058 2.71701 10.0852C1.98607 9.14516 1.47732 7.95297 1.25982 6.58953C1.59514 6.97891 2.06107 7.33453 2.64639 7.64078ZM14.0354 11.9777C14.0354 12.947 11.2561 14.027 7.26826 14.027C3.27951 14.027 0.499824 12.9467 0.499824 11.9777C0.499824 11.478 1.23139 10.9542 2.46545 10.563C2.50014 10.6042 2.53514 10.6455 2.57076 10.6861C3.78732 12.073 5.45545 12.8367 7.26826 12.8367C8.9542 12.8367 10.5151 12.1755 11.7039 10.9667C12.0239 10.9539 12.4179 10.9217 12.8354 10.8505C13.5989 11.1936 14.0354 11.6027 14.0354 11.9777ZM15.4983 8.08953C15.4945 8.16859 15.4839 8.25891 15.467 8.35641C15.3226 9.18391 14.7067 9.78422 13.6361 10.1402C13.3701 10.2289 13.097 10.2942 12.8317 10.3427C12.8239 10.3436 12.8164 10.3452 12.8089 10.347C12.5895 10.3864 12.3758 10.4136 12.1758 10.433C12.362 10.1992 12.5342 9.95203 12.6917 9.69203C12.9564 9.64547 13.2036 9.58422 13.4283 9.50953C14.4483 9.17047 14.7442 8.63203 14.8126 8.24078C14.8211 8.19453 14.8264 8.13484 14.8295 8.06047C14.8351 7.94141 14.8204 7.82172 14.7851 7.70297C14.7489 7.58391 14.6942 7.47328 14.622 7.37328C14.5229 7.23766 14.3936 7.13422 14.2401 7.06672C14.0976 7.00266 13.9273 6.96297 13.722 6.94516C13.7629 6.72891 13.797 6.50922 13.8233 6.28641C14.0842 6.31297 14.3101 6.36922 14.5101 6.45797C14.7783 6.57766 14.9914 6.74984 15.162 6.98547C15.2783 7.14484 15.3661 7.32141 15.4236 7.50984C15.4817 7.69984 15.5067 7.89547 15.4983 8.08953ZM5.86107 4.26672C6.02357 4.46453 6.2117 4.60703 6.39389 4.74484C6.67232 4.95547 6.91295 5.13766 7.03107 5.48828C7.06545 5.59016 7.16076 5.65859 7.26826 5.65859C7.37576 5.65859 7.47107 5.58984 7.50545 5.48797C7.62326 5.13734 7.86357 4.95516 8.14201 4.74453C8.32389 4.60703 8.51201 4.46453 8.67451 4.26641C9.33795 3.45609 9.15357 2.91109 8.98451 2.65859C8.72139 2.26516 8.15545 2.08016 7.66889 2.22797C7.50826 2.27672 7.37295 2.35734 7.26826 2.46297C7.16357 2.35734 7.02826 2.27672 6.86764 2.22797C6.38076 2.08016 5.81451 2.26516 5.55139 2.65859C5.38201 2.91141 5.19732 3.45609 5.86107 4.26672C5.86107 4.26641 5.86107 4.26641 5.86107 4.26672ZM5.96701 2.93703C6.10795 2.72641 6.4467 2.62297 6.72201 2.70672C6.91826 2.76641 7.01795 2.90047 7.01795 3.10516C7.01795 3.24328 7.12982 3.35547 7.26826 3.35547C7.4067 3.35547 7.51857 3.24359 7.51857 3.10516C7.51857 2.90047 7.61795 2.76641 7.8142 2.70672C8.0892 2.62328 8.42764 2.72641 8.56857 2.93672C8.72732 3.17422 8.62764 3.53359 8.28764 3.94891C8.16295 4.10109 8.00607 4.21953 7.84014 4.34516C7.64701 4.49109 7.43764 4.64984 7.26826 4.87578C7.09857 4.64984 6.8892 4.49141 6.69607 4.34516C6.53014 4.21953 6.37326 4.10078 6.24826 3.94891C5.90795 3.53391 5.80826 3.17422 5.96701 2.93703ZM5.58201 6.99547C6.17326 7.24328 6.78482 7.49984 7.09951 7.85891C7.14701 7.91297 7.21576 7.94422 7.28764 7.94422C7.35982 7.94422 7.42826 7.91297 7.47576 7.85891C7.79014 7.49984 8.4017 7.24359 8.99295 6.99547C9.83764 6.64141 10.7108 6.27516 10.8958 5.53547C11.0208 5.03484 10.8058 4.45297 10.2383 3.75703C10.1739 3.67828 10.0683 3.64609 9.97107 3.67578C9.87389 3.70547 9.8042 3.79141 9.79514 3.89297C9.7092 4.85641 9.15357 5.09891 8.44982 5.40578C8.07451 5.56953 7.65639 5.75172 7.28764 6.06609C6.91889 5.75172 6.50045 5.56953 6.12514 5.40578C5.42107 5.09891 4.86514 4.85641 4.7792 3.89297C4.77014 3.79172 4.70076 3.70578 4.60326 3.67578C4.50576 3.64578 4.40014 3.67797 4.33576 3.75703C3.76857 4.45297 3.55357 5.03484 3.67857 5.53547C3.86389 6.27516 4.73732 6.64109 5.58201 6.99547ZM4.39951 4.52516C4.66826 5.31641 5.30545 5.59422 5.92514 5.86422C6.33982 6.04516 6.76889 6.23203 7.10795 6.58234C7.15514 6.63109 7.21982 6.65859 7.28764 6.65859C7.35545 6.65859 7.42045 6.63109 7.46732 6.58234C7.80639 6.23203 8.23514 6.04516 8.64951 5.86422C9.2692 5.59391 9.90607 5.31641 10.1748 4.52484C10.3901 4.87859 10.4692 5.17641 10.4101 5.41359C10.2861 5.91016 9.53045 6.22703 8.79951 6.53359C8.24982 6.76391 7.68451 7.00109 7.28764 7.34328C6.89076 7.00141 6.32514 6.76422 5.77545 6.53391C5.04451 6.22734 4.28857 5.91047 4.16451 5.41391C4.10514 5.17641 4.1842 4.87891 4.39951 4.52516Z" fill="#2A2A2A"/>
</g>
<defs>
<clipPath id="clip0_553_6402">
<rect width="16" height="16" fill="white"/>
</clipPath>
</defs>
</svg>
