<svg width="20" height="20" viewBox="0 0 20 20" fill="none" xmlns="http://www.w3.org/2000/svg">
<g clip-path="url(#clip0_1009_5139)">
<path fill-rule="evenodd" clip-rule="evenodd" d="M9.05547 18.0995C14.0426 18.0995 18.1109 16.7663 18.1109 15.1319C18.1109 13.4975 14.0426 12.1643 9.05547 12.1643C4.06836 12.1643 0 13.4979 0 15.1323C0 16.7667 4.06797 18.0995 9.05547 18.0995Z" fill="#D9CCBC"/>
<path fill-rule="evenodd" clip-rule="evenodd" d="M9.05547 12.1648C11.7297 12.1648 14.1324 12.5445 15.7898 13.148C15.6523 13.3285 15.5098 13.5058 15.359 13.6773C13.7445 15.5175 11.509 16.5628 9.05508 16.5628C6.60117 16.5628 4.36562 15.5175 2.75117 13.6773C2.60078 13.5058 2.45781 13.3285 2.32031 13.148C3.97852 12.5445 6.38125 12.1648 9.05547 12.1648Z" fill="#C3B8A9"/>
<path fill-rule="evenodd" clip-rule="evenodd" d="M12.0696 12.333C14.2907 12.59 16.1157 13.1225 17.1587 13.8068C16.0571 14.1057 14.8247 14.1967 13.7095 14.1467C13.2821 14.1279 12.8513 14.0846 12.4294 14.0104L11.7915 13.8998L12.0696 12.333Z" fill="#C3B8A9"/>
<path d="M14.8717 7.5284L15.4963 7.51161C15.6857 7.50614 15.8795 7.49285 16.0775 7.47957C16.517 7.4495 16.9756 7.41864 17.4471 7.45731C17.8225 7.48739 18.1889 7.56239 18.5311 7.71512C18.9029 7.87996 19.2342 8.13036 19.5033 8.49911C19.674 8.73504 19.8045 8.99754 19.8877 9.27293C19.9717 9.54989 20.0107 9.8409 19.9975 10.1311C19.992 10.2464 19.9775 10.3749 19.9533 10.5155C19.7209 11.8444 18.6775 12.6339 17.3744 13.0679C16.215 13.453 14.8443 13.5518 13.7381 13.5018C13.3072 13.4819 12.8955 13.4366 12.54 13.3745L12.8014 11.8952C13.0658 11.9405 13.408 11.9761 13.8068 11.9936C14.7725 12.0378 15.9471 11.9581 16.9018 11.6405C17.7135 11.3714 18.3545 10.9319 18.4729 10.253C18.4807 10.2089 18.4861 10.1456 18.4904 10.0624C18.4959 9.94051 18.4807 9.82215 18.4463 9.71043C18.4096 9.5909 18.3557 9.47918 18.2846 9.38153C18.185 9.2452 18.0607 9.15223 17.9201 9.08934C17.7494 9.01278 17.5459 8.9741 17.3268 8.95653C16.9791 8.92879 16.5682 8.95653 16.1752 8.98309C15.9549 8.99754 15.7377 9.012 15.5373 9.01746L14.9127 9.03504L14.8717 7.5284Z" fill="#D4CEC7"/>
<path fill-rule="evenodd" clip-rule="evenodd" d="M17.2838 6.20728C17.2838 12.0471 13.5998 15.917 9.05566 15.917C4.51152 15.917 0.827148 12.0471 0.827148 6.20728H17.2838Z" fill="#EBE5DD"/>
<path fill-rule="evenodd" clip-rule="evenodd" d="M9.05566 10.5136C13.5877 10.5136 17.2838 8.5792 17.2838 6.20732C17.2838 3.83545 13.5877 1.8999 9.05566 1.8999C4.52363 1.8999 0.827148 3.83584 0.827148 6.20732C0.827148 8.5792 4.52324 10.5136 9.05566 10.5136Z" fill="#EABC6B"/>
<path fill-rule="evenodd" clip-rule="evenodd" d="M7.49074 4.97719C7.98683 5.58305 8.76183 5.78344 9.05519 6.65571C9.34855 5.78305 10.1235 5.58266 10.6196 4.97719C12.4224 2.77602 9.05519 2.08617 9.05519 3.68383C9.05558 2.08617 5.688 2.77602 7.49074 4.97719Z" fill="white"/>
<path fill-rule="evenodd" clip-rule="evenodd" d="M9.08089 9.60459C7.66917 7.99248 2.78363 8.08857 5.52308 4.72803C5.72698 7.01357 7.78753 6.60811 9.08089 7.94561C10.3743 6.60811 12.4348 7.01318 12.6387 4.72803C15.3778 8.08857 10.4926 7.99248 9.08089 9.60459Z" fill="white"/>
<path fill-rule="evenodd" clip-rule="evenodd" d="M10.0075 10.1904C5.67158 10.1904 2.11807 8.43418 1.80127 6.20762C1.78564 6.1002 1.77783 5.99277 1.77783 5.88301C1.77783 4.47676 3.06768 3.22676 5.06104 2.44043C2.53525 3.17559 0.82666 4.58731 0.82666 6.20723C0.82666 8.58574 4.51064 10.5135 9.05478 10.5135C10.9106 10.5135 12.6235 10.1924 14.0009 9.6498C12.8181 9.99434 11.456 10.1904 10.0075 10.1904Z" fill="#D3A960"/>
</g>
<defs>
<clipPath id="clip0_1009_5139">
<rect width="20" height="20" fill="white"/>
</clipPath>
</defs>
</svg>
