<svg width="6" height="6" viewBox="0 0 6 6" fill="none" xmlns="http://www.w3.org/2000/svg">
<path d="M1.75 4.5V4.25C1.75 3.91848 1.8817 3.60054 2.11612 3.36612C2.35054 3.1317 2.66848 3 3 3M3 3C3.33152 3 3.64946 3.1317 3.88388 3.36612C4.1183 3.60054 4.25 3.91848 4.25 4.25V4.5M3 3C3.19891 3 3.38968 2.92098 3.53033 2.78033C3.67098 2.63968 3.75 2.44891 3.75 2.25C3.75 2.05109 3.67098 1.86032 3.53033 1.71967C3.38968 1.57902 3.19891 1.5 3 1.5C2.80109 1.5 2.61032 1.57902 2.46967 1.71967C2.32902 1.86032 2.25 2.05109 2.25 2.25C2.25 2.44891 2.32902 2.63968 2.46967 2.78033C2.61032 2.92098 2.80109 3 3 3ZM0.25 4.5V4.25C0.25 4.05109 0.329018 3.86032 0.46967 3.71967C0.610322 3.57902 0.801088 3.5 1 3.5M1 3.5C1.13261 3.5 1.25979 3.44732 1.35355 3.35355C1.44732 3.25979 1.5 3.13261 1.5 3C1.5 2.86739 1.44732 2.74021 1.35355 2.64645C1.25979 2.55268 1.13261 2.5 1 2.5C0.867392 2.5 0.740215 2.55268 0.646447 2.64645C0.552678 2.74021 0.5 2.86739 0.5 3C0.5 3.13261 0.552678 3.25979 0.646447 3.35355C0.740215 3.44732 0.867392 3.5 1 3.5ZM5.75 4.5V4.25C5.75 4.05109 5.67098 3.86032 5.53033 3.71967C5.38968 3.57902 5.19891 3.5 5 3.5M5 3.5C5.13261 3.5 5.25979 3.44732 5.35355 3.35355C5.44732 3.25979 5.5 3.13261 5.5 3C5.5 2.86739 5.44732 2.74021 5.35355 2.64645C5.25979 2.55268 5.13261 2.5 5 2.5C4.86739 2.5 4.74021 2.55268 4.64645 2.64645C4.55268 2.74021 4.5 2.86739 4.5 3C4.5 3.13261 4.55268 3.25979 4.64645 3.35355C4.74021 3.44732 4.86739 3.5 5 3.5Z" stroke="url(#paint0_linear_1049_8496)" stroke-width="0.28125" stroke-linecap="round" stroke-linejoin="round"/>
<defs>
<linearGradient id="paint0_linear_1049_8496" x1="11.3009" y1="5.19444" x2="8.04325" y2="9.73009" gradientUnits="userSpaceOnUse">
<stop offset="0.160244" stop-color="#8663F6"/>
<stop offset="0.535257" stop-color="#C470F5"/>
<stop offset="0.922419" stop-color="#57C2FF"/>
</linearGradient>
</defs>
</svg>
