<svg width="335" height="171" viewBox="0 0 335 171" fill="none" xmlns="http://www.w3.org/2000/svg">
<g opacity="0.592285">
<path d="M171.945 27.238L168.127 32.8429L160.877 30.1885L164.694 24.5837L171.945 27.238Z" fill="#666666"/>
</g>
<g opacity="0.156693">
<path d="M332.776 154.348L334.754 162.033L326.821 166.357L324.843 158.672L332.776 154.348Z" fill="#666666"/>
</g>
<g opacity="0.731663">
<path d="M306.28 107.169L301.852 101.733L306.62 95.3311L311.049 100.766L306.28 107.169Z" fill="#666666"/>
</g>
<g opacity="0.418047">
<path d="M216.67 18.8378L217.689 28.0321L207.822 31.7166L206.803 22.5223L216.67 18.8378Z" fill="#FFA63A"/>
</g>
<g opacity="0.387294">
<path d="M124.551 23.7221L123.327 30.9177L115.041 31.5693L116.266 24.3731L124.551 23.7221Z" fill="#3E80FF"/>
</g>
<g opacity="0.810045">
<path d="M306.12 139.342L305.669 134.604L310.774 132.787L311.225 137.525L306.12 139.342Z" fill="#FF3399"/>
</g>
<g opacity="0.631877">
<path d="M207.509 45.1534L214.795 45.5975L216.334 53.7646L209.048 53.3211L207.509 45.1534Z" fill="#FF3399"/>
</g>
<g opacity="0.354678">
<path d="M79.0881 56.2567L72.3668 59.1024L67.3536 52.4739L74.0753 49.6278L79.0881 56.2567Z" fill="#FFA63A"/>
</g>
<g opacity="0.731663">
<path d="M11.3299 157.561L18.1662 160.119L17.2438 168.379L10.4075 165.821L11.3299 157.561Z" fill="#3E80FF"/>
</g>
<path d="M15 86.3615C14.9106 85.6824 14.7121 85.0499 14.1914 84.5584C13.5169 83.9218 12.5056 83.8321 11.6712 83.4275C10.8914 83.0493 10.2602 82.3743 9.9352 81.571C9.47233 80.4274 9.61064 79.0594 8.92441 78.034C8.3177 77.1277 7.20617 76.7091 6.14144 76.4725C5.07671 76.236 3.95942 76.1171 3.00602 75.5876C2.22505 75.1538 1.6301 74.4899 1.09277 73.7661" stroke="#FFA63A" stroke-opacity="0.999214" stroke-width="1.91093" stroke-miterlimit="10"/>
<path d="M222.561 7.56466C221.501 7.409 220.401 7.48088 219.465 7.98124C218.327 8.5899 217.538 9.95961 217.9 11.1984C218.328 12.6659 220.071 13.3285 221.6 13.3306C222.088 13.3313 222.588 13.2834 223.025 13.0668C223.983 12.5921 224.39 11.457 224.622 10.414C225.249 7.60737 225.252 4.66328 224.631 1.85548C224.517 1.3404 224.38 0.826267 224.2 0.330566" stroke="#FFA63A" stroke-width="1.93472" stroke-miterlimit="10"/>
<path d="M101.749 47.5647C100.69 47.409 99.5895 47.4809 98.6541 47.9812C97.5161 48.5899 96.7271 49.9596 97.0886 51.1984C97.5166 52.6659 99.2602 53.3285 100.789 53.3306C101.276 53.3313 101.777 53.2834 102.214 53.0668C103.172 52.5921 103.579 51.457 103.811 50.414C104.438 47.6074 104.441 44.6633 103.82 41.8555C103.706 41.3404 103.569 40.8263 103.389 40.3306" stroke="#FFA63A" stroke-width="1.93472" stroke-miterlimit="10"/>
<path d="M33.4292 115.331C33.3539 115.493 33.2636 115.65 33.1547 115.8C32.252 117.047 30.4974 117.253 28.9584 117.244C27.419 117.235 25.7276 117.169 24.525 118.129C23.0954 119.271 22.9603 121.424 23.4129 123.197C23.6686 124.198 24.0277 125.397 23.3282 126.158C22.8119 126.721 21.9512 126.751 21.1876 126.757C18.4907 126.78 15.3406 127.282 14.0604 129.656C13.0086 131.605 13.4606 134.465 11.5981 135.664C9.93385 136.736 7.60396 135.602 5.79133 136.397C5.47632 136.535 5.20303 136.716 4.96179 136.93" stroke="#FF3399" stroke-width="2.50612" stroke-miterlimit="10"/>
<path d="M85.7618 25.3306C85.5816 24.0004 86.8118 22.8299 87.0818 21.4836C87.2868 20.4616 86.8744 19.3402 86.0564 18.6941C84.7507 17.6634 82.532 17.7199 81.8809 16.1891C81.2907 14.8018 82.5456 13.2098 82.1731 11.7488C81.9518 10.8814 81.2021 10.2577 80.4455 9.7793C79.565 9.22271 78.5577 8.70556 77.7893 8.02246" stroke="#FF3399" stroke-width="1.87949" stroke-miterlimit="10"/>
<path d="M187.973 25.6387C187.792 24.3085 189.022 23.138 189.292 21.7917C189.497 20.7697 189.085 19.6483 188.267 19.0022C186.961 17.9715 184.743 18.028 184.092 16.4972C183.501 15.1099 184.756 13.5179 184.384 12.0569C184.163 11.1895 183.413 10.5658 182.656 10.0874C181.776 9.53081 180.768 9.01367 180 8.33057" stroke="#FF3399" stroke-width="1.87949" stroke-miterlimit="10"/>
<path d="M143 25.4913C141.491 25.9162 139.767 25.4877 138.506 24.5216C137.299 23.5965 136.436 22.1302 136.522 20.6115C136.608 19.093 137.811 17.6283 139.328 17.5137C139.719 17.4841 140.13 17.5451 140.458 17.7609C140.786 17.9767 141.015 18.3666 140.968 18.7566C140.919 19.1723 140.585 19.4974 140.23 19.7201C138.714 20.673 136.682 20.3101 135.124 19.4273C133.803 18.6793 132.658 17.5528 132.097 16.1425C131.949 15.7712 131.844 15.3834 131.783 14.9888" stroke="#3E80FF" stroke-width="1.07057" stroke-miterlimit="10"/>
<path d="M236.797 74.8151C236.473 74.3061 235.976 73.9092 235.387 73.7665C235.083 73.6926 234.747 73.6834 234.474 73.8345C234.088 74.048 233.921 74.5476 234.007 74.9807C234.092 75.4137 234.384 75.7813 234.725 76.061C235.78 76.926 237.349 77.0375 238.583 76.4562C239.817 75.875 240.704 74.6734 241.046 73.3531C241.314 72.3179 241.241 71.1337 240.579 70.2945C240.17 69.7763 239.553 69.4267 238.898 69.3421C238.233 69.2561 237.38 69.6558 237.457 70.3219C237.487 70.5759 237.65 70.7939 237.831 70.9747C238.765 71.9101 240.256 72.129 241.529 71.7695C242.576 71.4738 243.492 70.8412 244.285 70.0861" stroke="#3E80FF" stroke-width="1.77374" stroke-miterlimit="10"/>
<path d="M247 145.97C247.227 145.491 247.587 145.078 248.049 144.817C248.956 144.304 250.073 144.373 251.102 144.535C252.131 144.697 253.184 144.936 254.202 144.715C255.182 144.503 256.124 143.704 256.147 142.717" stroke="#FF3399" stroke-width="2.2155" stroke-miterlimit="10"/>
<path d="M149.236 87.8288C150.689 87.9336 152.202 87.8888 153.625 87.5742" stroke="#666666" stroke-width="4.829" stroke-miterlimit="10"/>
</svg>
