<svg width="33" height="33" viewBox="0 0 33 33" fill="none" xmlns="http://www.w3.org/2000/svg">
<path d="M15.0027 3.83222C15.0611 3.51983 15.2268 3.23768 15.4713 3.03464C15.7158 2.8316 16.0236 2.72046 16.3414 2.72046C16.6592 2.72046 16.9669 2.8316 17.2114 3.03464C17.4559 3.23768 17.6217 3.51983 17.68 3.83222L19.1112 11.401C19.2129 11.9391 19.4744 12.4341 19.8616 12.8213C20.2489 13.2086 20.7438 13.4701 21.2819 13.5717L28.8508 15.003C29.1631 15.0613 29.4453 15.2271 29.6483 15.4716C29.8514 15.716 29.9625 16.0238 29.9625 16.3416C29.9625 16.6594 29.8514 16.9672 29.6483 17.2117C29.4453 17.4561 29.1631 17.6219 28.8508 17.6802L21.2819 19.1115C20.7438 19.2131 20.2489 19.4746 19.8616 19.8619C19.4744 20.2491 19.2129 20.7441 19.1112 21.2822L17.68 28.851C17.6217 29.1634 17.4559 29.4455 17.2114 29.6486C16.9669 29.8516 16.6592 29.9628 16.3414 29.9628C16.0236 29.9628 15.7158 29.8516 15.4713 29.6486C15.2268 29.4455 15.0611 29.1634 15.0027 28.851L13.5715 21.2822C13.4698 20.7441 13.2083 20.2491 12.8211 19.8619C12.4339 19.4746 11.9389 19.2131 11.4008 19.1115L3.83197 17.6802C3.51958 17.6219 3.23744 17.4561 3.0344 17.2117C2.83136 16.9672 2.72021 16.6594 2.72021 16.3416C2.72021 16.0238 2.83136 15.716 3.0344 15.4716C3.23744 15.2271 3.51958 15.0613 3.83197 15.003L11.4008 13.5717C11.9389 13.4701 12.4339 13.2086 12.8211 12.8213C13.2083 12.4341 13.4698 11.9391 13.5715 11.401L15.0027 3.83222Z" stroke="#9810FA" stroke-width="2.72358" stroke-linecap="round" stroke-linejoin="round"/>
<path d="M27.2358 2.72339V8.17054" stroke="#9810FA" stroke-width="2.72358" stroke-linecap="round" stroke-linejoin="round"/>
<path d="M29.9594 5.44727H24.5122" stroke="#9810FA" stroke-width="2.72358" stroke-linecap="round" stroke-linejoin="round"/>
<path d="M5.44721 29.9594C6.9514 29.9594 8.17079 28.74 8.17079 27.2358C8.17079 25.7316 6.9514 24.5122 5.44721 24.5122C3.94302 24.5122 2.72363 25.7316 2.72363 27.2358C2.72363 28.74 3.94302 29.9594 5.44721 29.9594Z" stroke="#9810FA" stroke-width="2.72358" stroke-linecap="round" stroke-linejoin="round"/>
</svg>
