<svg width="20" height="26" viewBox="0 0 20 26" fill="none" xmlns="http://www.w3.org/2000/svg">
<path fill-rule="evenodd" clip-rule="evenodd" d="M18.2923 8.23242L16.7729 23.5391C16.6863 24.4119 16.0218 25.112 15.1447 25.112H4.77504C3.89791 25.112 3.23347 24.4124 3.1468 23.5391L1.62744 8.23242H18.2923ZM6.35054 11.2554C6.32614 10.8074 6.67163 10.4221 7.11962 10.3977C7.56761 10.3732 7.95293 10.7187 7.97733 11.1667C8.15228 14.3759 8.32728 17.5851 8.50219 20.7943C8.5211 21.141 8.33169 21.4476 8.01316 21.5858C7.69463 21.7241 7.34133 21.6531 7.10096 21.4025C6.97076 21.2667 6.88647 21.0857 6.87547 20.8839C6.70047 17.6745 6.52556 14.4649 6.35054 11.2554ZM12.8002 10.3977C13.2462 10.422 13.5935 10.8093 13.5692 11.2554C13.3943 14.4645 13.2193 17.6738 13.0443 20.883C13.0254 21.2295 12.804 21.5136 12.4726 21.6165C12.1411 21.7195 11.7977 21.6108 11.5858 21.3359C11.4708 21.1867 11.4065 20.9973 11.4175 20.7952C11.5924 17.5857 11.7674 14.3762 11.9425 11.1667C11.9669 10.7187 12.3522 10.3732 12.8002 10.3977Z" fill="white"/>
<path d="M18.4877 4.81055H1.43186C0.641065 4.81055 0 5.45161 0 6.2424V6.24264C0 7.03343 0.641065 7.6745 1.43186 7.6745H18.4877C19.2785 7.6745 19.9196 7.03343 19.9196 6.24264V6.2424C19.9196 5.45161 19.2785 4.81055 18.4877 4.81055Z" fill="white"/>
<path fill-rule="evenodd" clip-rule="evenodd" d="M14.9083 4.94964H13.4827V3.11784C13.4827 2.18705 12.7212 1.42554 11.7905 1.42554H8.12856C7.19781 1.42554 6.43628 2.18707 6.43628 3.11784V4.94964H5.01074V3.11782C5.01074 1.40025 6.41097 0 8.12853 0H11.7905C13.508 0 14.9083 1.40028 14.9083 3.11782V4.94964Z" fill="white"/>
</svg>
