<svg width="24" height="24" viewBox="0 0 24 24" fill="none" xmlns="http://www.w3.org/2000/svg">
<g clip-path="url(#clip0_470_7976)">
<path fill-rule="evenodd" clip-rule="evenodd" d="M12 22.5C14.7848 22.5 17.4555 21.3938 19.4246 19.4246C21.3938 17.4555 22.5 14.7848 22.5 12C22.5 9.21523 21.3938 6.54451 19.4246 4.57538C17.4555 2.60625 14.7848 1.5 12 1.5C9.21523 1.5 6.54451 2.60625 4.57538 4.57538C2.60625 6.54451 1.5 9.21523 1.5 12C1.5 14.7848 2.60625 17.4555 4.57538 19.4246C6.54451 21.3938 9.21523 22.5 12 22.5ZM12 24C15.1826 24 18.2348 22.7357 20.4853 20.4853C22.7357 18.2348 24 15.1826 24 12C24 8.8174 22.7357 5.76516 20.4853 3.51472C18.2348 1.26428 15.1826 0 12 0C8.8174 0 5.76516 1.26428 3.51472 3.51472C1.26428 5.76516 0 8.8174 0 12C0 15.1826 1.26428 18.2348 3.51472 20.4853C5.76516 22.7357 8.8174 24 12 24Z" fill="#9D9D9D"/>
<path d="M17.781 7.28104C17.9176 7.13959 17.9932 6.95014 17.9915 6.75349C17.9898 6.55684 17.9109 6.36874 17.7718 6.22968C17.6328 6.09062 17.4447 6.01175 17.248 6.01004C17.0514 6.00833 16.8619 6.08392 16.7205 6.22054L12 10.9395L7.28098 6.22054C7.2118 6.14891 7.12904 6.09177 7.03754 6.05247C6.94603 6.01316 6.84762 5.99247 6.74803 5.99161C6.64845 5.99074 6.54969 6.00972 6.45752 6.04743C6.36534 6.08514 6.28161 6.14083 6.21119 6.21125C6.14077 6.28167 6.08508 6.36541 6.04737 6.45758C6.00966 6.54975 5.99068 6.64851 5.99154 6.74809C5.99241 6.84768 6.0131 6.94609 6.05241 7.0376C6.09171 7.1291 6.14885 7.21186 6.22048 7.28104L10.9395 12L6.22048 16.719C6.07965 16.8597 6.00046 17.0505 6.00032 17.2495C6.00017 17.4485 6.0791 17.6395 6.21973 17.7803C6.36036 17.9211 6.55118 18.0003 6.7502 18.0005C6.94922 18.0006 7.14015 17.9217 7.28098 17.781L12 13.0605L16.7205 17.781C16.8613 17.9217 17.0522 18.0006 17.2513 18.0005C17.4503 18.0003 17.6411 17.9211 17.7817 17.7803C17.9224 17.6395 18.0013 17.4485 18.0011 17.2495C18.001 17.0505 17.9218 16.8597 17.781 16.719L13.062 12L17.781 7.28104Z" fill="#9D9D9D"/>
</g>
<defs>
<clipPath id="clip0_470_7976">
<rect width="24" height="24" fill="white"/>
</clipPath>
</defs>
</svg>
