<svg width="50" height="50" viewBox="0 0 50 50" fill="none" xmlns="http://www.w3.org/2000/svg">
<path d="M45.9441 4.80664C45.2027 4.81095 44.4932 5.10862 43.9707 5.63462C43.9707 5.63462 32.234 17.3485 25.1066 24.4712L20.0835 19.4481C18.989 18.3564 17.2175 18.3564 16.123 19.4481C15.0313 20.5426 15.0313 22.3141 16.123 23.4086L23.1332 30.4188C24.2277 31.5104 25.9992 31.5104 27.0937 30.4188C33.7253 23.7897 47.9312 9.59513 47.9312 9.59513C49.0229 8.50064 49.0229 6.72911 47.9312 5.63462C47.4054 5.10527 46.6902 4.80729 45.9441 4.80664Z" fill="url(#paint0_linear_1073_18037)"/>
<path d="M23.6864 2.56909C11.3304 2.5692 1.25 12.6385 1.25 24.9947C1.25 37.3505 11.3304 47.431 23.6864 47.431C33.8261 47.431 42.7282 40.5978 45.3524 30.8036C45.8599 28.9101 46.1118 26.955 46.1119 24.9947C46.1119 23.4474 44.8587 22.1926 43.3114 22.1905C41.7642 22.1926 40.511 23.4474 40.511 24.9947C40.5109 26.465 40.3111 27.9339 39.9304 29.3541C37.9561 36.7225 31.3149 41.83 23.6864 41.8302C14.3613 41.83 6.85089 34.3198 6.85089 24.9947C6.85089 15.6695 14.3613 8.17004 23.6864 8.17004C25.1569 8.17014 26.6146 8.37046 28.035 8.75048C29.5308 9.15154 31.0685 8.26415 31.4696 6.76829L31.4707 6.7643C31.8718 5.26844 30.9843 3.73074 29.4885 3.32969L29.4845 3.32861C27.5907 2.82126 25.6471 2.5692 23.6864 2.56909Z" fill="url(#paint1_linear_1073_18037)"/>
<defs>
<linearGradient id="paint0_linear_1073_18037" x1="67" y1="98" x2="8.45454" y2="104.041" gradientUnits="userSpaceOnUse">
<stop offset="0.236562" stop-color="#C470F5"/>
<stop offset="0.576286" stop-color="#8663F6"/>
<stop offset="1" stop-color="#57C2FF"/>
</linearGradient>
<linearGradient id="paint1_linear_1073_18037" x1="67" y1="98" x2="8.45454" y2="104.041" gradientUnits="userSpaceOnUse">
<stop offset="0.236562" stop-color="#C470F5"/>
<stop offset="0.576286" stop-color="#8663F6"/>
<stop offset="1" stop-color="#57C2FF"/>
</linearGradient>
</defs>
</svg>
