<svg width="32" height="32" viewBox="0 0 32 32" fill="none" xmlns="http://www.w3.org/2000/svg">
<path d="M23.4614 17.024C23.9616 17.5242 24.64 17.8052 25.3474 17.8052C26.0548 17.8052 26.7332 17.5242 27.2334 17.024C27.7336 16.5238 28.0146 15.8454 28.0146 15.138C28.0146 14.4306 27.7336 13.7522 27.2334 13.252L24.876 10.896C25.3762 11.396 26.0546 11.6769 26.7618 11.6767C27.112 11.6767 27.4588 11.6076 27.7823 11.4736C28.1058 11.3395 28.3998 11.143 28.6474 10.8953C28.8949 10.6477 29.0913 10.3537 29.2253 10.0301C29.3592 9.70653 29.4282 9.35974 29.4281 9.00954C29.428 8.65934 29.359 8.31258 29.2249 7.98906C29.0909 7.66554 28.8944 7.3716 28.6467 7.12401L24.876 3.35335C24.376 2.85315 23.6978 2.57207 22.9905 2.57195C22.2832 2.57182 21.6049 2.85266 21.1047 3.35268C20.6045 3.8527 20.3234 4.53095 20.3233 5.23821C20.3232 5.94547 20.604 6.62382 21.104 7.12401L18.748 4.76668C18.5004 4.51901 18.2063 4.32254 17.8827 4.1885C17.5591 4.05446 17.2123 3.98547 16.862 3.98547C16.5118 3.98547 16.1649 4.05446 15.8413 4.1885C15.5177 4.32254 15.2237 4.51901 14.976 4.76668C14.7284 5.01435 14.5319 5.30838 14.3979 5.63198C14.2638 5.95559 14.1948 6.30242 14.1948 6.65268C14.1948 7.00294 14.2638 7.34978 14.3979 7.67338C14.5319 7.99698 14.7284 8.29101 14.976 8.53868L23.4614 17.024Z" stroke="#6E6E6E" stroke-width="1.5" stroke-linecap="round" stroke-linejoin="round"/>
<path d="M3.3335 28.6667L5.20016 26.8" stroke="#6E6E6E" stroke-width="1.5" stroke-linecap="round" stroke-linejoin="round"/>
<path d="M26.7998 5.2L28.6665 3.33333" stroke="#6E6E6E" stroke-width="1.5" stroke-linecap="round" stroke-linejoin="round"/>
<path d="M7.12385 28.6467C7.62387 29.1468 8.30211 29.4279 9.00937 29.4281C9.35958 29.4281 9.70636 29.3592 10.0299 29.2252C10.3535 29.0913 10.6475 28.8949 10.8952 28.6473C11.1429 28.3997 11.3393 28.1058 11.4734 27.7823C11.6075 27.4587 11.6765 27.112 11.6766 26.7618C11.6766 26.4116 11.6077 26.0648 11.4738 25.7412C11.3398 25.4177 11.1434 25.1237 10.8958 24.876L13.2518 27.2333C13.752 27.7335 14.4305 28.0145 15.1378 28.0145C15.8452 28.0145 16.5236 27.7335 17.0238 27.2333C17.524 26.7331 17.8051 26.0547 17.8051 25.3473C17.8051 24.6399 17.524 23.9615 17.0238 23.4613L8.53851 14.976C8.29084 14.7283 7.99681 14.5318 7.67321 14.3978C7.34961 14.2638 7.00278 14.1948 6.65251 14.1948C6.30225 14.1948 5.95542 14.2638 5.63182 14.3978C5.30822 14.5318 5.01419 14.7283 4.76651 14.976C4.51884 15.2237 4.32237 15.5177 4.18833 15.8413C4.0543 16.1649 3.98531 16.5117 3.98531 16.862C3.98531 17.2122 4.0543 17.5591 4.18833 17.8827C4.32237 18.2063 4.51884 18.5003 4.76651 18.748L7.12385 21.104C6.62365 20.604 5.9453 20.3231 5.23804 20.3232C4.53078 20.3234 3.85253 20.6045 3.35251 21.1047C2.85249 21.6048 2.57165 22.2832 2.57178 22.9905C2.5719 23.6977 2.85298 24.376 3.35318 24.876L7.12385 28.6467Z" stroke="#6E6E6E" stroke-width="1.5" stroke-linecap="round" stroke-linejoin="round"/>
<path d="M12.7998 19.2L19.1998 12.8" stroke="#6E6E6E" stroke-width="1.5" stroke-linecap="round" stroke-linejoin="round"/>
</svg>
