<svg width="32" height="32" viewBox="0 0 32 32" fill="none" xmlns="http://www.w3.org/2000/svg">
<path d="M10.3125 18.3098C10.3125 18.3098 11.5198 16.6803 12.3125 16.3093C14.7056 15.1887 15.1924 14.7018 16.3125 12.308C16.6836 11.515 18.3125 10.3073 18.3125 10.3073M13.6459 21.6442C13.6459 21.6442 15.2748 20.4365 15.6459 19.6435C16.766 17.2498 17.2528 16.7629 19.6459 15.6423C20.4385 15.2711 21.6459 13.6417 21.6459 13.6417" stroke="#707070" stroke-width="1.5" stroke-linecap="round" stroke-linejoin="round"/>
<path d="M19.2416 3.85617C19.9174 3.17799 21.0149 3.17624 21.6929 3.85229L28.1086 10.2498C28.7866 10.9258 28.7884 12.0236 28.1125 12.7018L26.0744 14.7471C25.3985 15.4253 24.301 15.427 23.623 14.751L17.2073 8.3535C16.5294 7.67745 16.5277 6.57963 17.2034 5.90143L19.2416 3.85617Z" stroke="#707070" stroke-width="1.5"/>
<path d="M5.88519 17.2024C6.56103 16.5243 7.65851 16.5225 8.3365 17.1985L14.7523 23.596C15.4302 24.2721 15.4319 25.3699 14.7562 26.0481L12.718 28.0933C12.0421 28.7716 10.9447 28.7733 10.2667 28.0972L3.85094 21.6997C3.17295 21.0237 3.17122 19.9259 3.84706 19.2477L5.88519 17.2024Z" stroke="#707070" stroke-width="1.5"/>
<path d="M23.9169 4.60331C26.4268 1.31388 30.8533 5.12006 27.3908 8.03822M4.50415 23.9697C1.3313 26.6249 5.33043 30.8781 8.08989 27.2875" stroke="#707070" stroke-width="1.5" stroke-linecap="round" stroke-linejoin="round"/>
</svg>
