<svg width="32" height="32" viewBox="0 0 32 32" fill="none" xmlns="http://www.w3.org/2000/svg">
<path d="M15.9998 29.3334C8.63604 29.3334 2.6665 23.3638 2.6665 16C2.6665 12.2766 4.1927 8.90972 6.65366 6.49072M15.9998 29.3334C14.7158 28.3819 14.9208 27.274 15.5649 26.1663C16.5553 24.4632 16.5553 24.4632 16.5553 22.1926C16.5553 19.9219 17.9046 18.8572 22.6665 19.8095C24.8061 20.2375 26.3653 17.2812 29.1429 18.2574M15.9998 29.3334C22.5942 29.3334 28.0705 24.5462 29.1429 18.2574M6.65366 6.49072C7.78605 6.61023 8.42006 7.21688 9.47312 8.32958C11.4724 10.4421 13.4716 10.6183 14.8045 9.91416C16.8037 8.85794 15.1237 7.1471 17.4701 6.21734C18.9086 5.64738 19.1828 4.15469 18.502 2.90109M6.65366 6.49072C9.05977 4.12565 12.3594 2.6667 15.9998 2.6667C16.855 2.6667 17.6914 2.74722 18.502 2.90109M29.1429 18.2574C29.268 17.5236 29.3332 16.7695 29.3332 16C29.3332 9.49146 24.6697 4.0721 18.502 2.90109" stroke="#707070" stroke-width="1.5" stroke-linejoin="round"/>
</svg>
