<svg width="24" height="24" viewBox="0 0 24 24" fill="none" xmlns="http://www.w3.org/2000/svg">
<path fill-rule="evenodd" clip-rule="evenodd" d="M13.5137 3.80698C14.5873 2.73182 16.3279 2.73052 17.4014 3.80405L19.8946 6.29722C20.9583 7.36164 20.9683 9.08486 19.917 10.1634L10.6856 19.6351C9.97946 20.3595 9.00994 20.7689 7.99907 20.7689H5.24712C3.96891 20.7687 2.94861 19.7032 3.002 18.4251L3.12017 15.6156C3.15969 14.676 3.55049 13.7849 4.21489 13.1195L13.5137 3.80698ZM20.5147 19.1947C20.9287 19.1947 21.2646 19.5304 21.2647 19.9447C21.2647 20.359 20.9288 20.6947 20.5147 20.6947H14.3936C13.9795 20.6947 13.6436 20.359 13.6436 19.9447C13.6437 19.5304 13.9796 19.1947 14.3936 19.1947H20.5147ZM5.27544 14.18C4.87681 14.5793 4.64193 15.1134 4.61821 15.6771L4.50103 18.4867C4.4832 18.9127 4.82294 19.2679 5.24907 19.2679H8.00103C8.60755 19.2679 9.18869 19.0219 9.61236 18.5873L16.1436 11.8861L11.8506 7.59312L5.27544 14.18ZM16.3409 4.86558C15.8529 4.37761 15.0613 4.37784 14.5733 4.86655L12.9102 6.53062L17.1905 10.8109L18.8438 9.11655C19.3216 8.62632 19.3175 7.84257 18.834 7.35874L16.3409 4.86558Z" fill="#2A2A2A"/>
</svg>
