<svg width="335" height="171" viewBox="0 0 335 171" fill="none" xmlns="http://www.w3.org/2000/svg">
<path d="M165.499 158.414C179.076 158.414 190.083 147.408 190.083 133.831C190.083 120.254 179.076 109.247 165.499 109.247C151.922 109.247 140.916 120.254 140.916 133.831C140.916 147.408 151.922 158.414 165.499 158.414ZM178.915 127.579L163.041 143.453L152.699 133.111L156.175 129.634L163.041 136.5L175.438 124.103L178.915 127.579Z" fill="url(#paint0_linear_3361_6097)"/>
<g opacity="0.592285">
<path d="M171.945 27.2377L168.127 32.8426L160.877 30.1882L164.694 24.5835L171.945 27.2377Z" fill="#666666"/>
</g>
<g opacity="0.156693">
<path d="M332.776 154.349L334.755 162.033L326.821 166.357L324.843 158.672L332.776 154.349Z" fill="#666666"/>
</g>
<g opacity="0.731663">
<path d="M306.279 107.168L301.851 101.732L306.619 95.3306L311.048 100.766L306.279 107.168Z" fill="#666666"/>
</g>
<g opacity="0.418047">
<path d="M216.67 18.8376L217.689 28.0318L207.822 31.7163L206.803 22.5221L216.67 18.8376Z" fill="#FFA63A"/>
</g>
<g opacity="0.387294">
<path d="M124.552 23.7219L123.327 30.9175L115.042 31.569L116.266 24.3729L124.552 23.7219Z" fill="#3E80FF"/>
</g>
<g opacity="0.810045">
<path d="M306.121 139.342L305.67 134.604L310.774 132.787L311.226 137.525L306.121 139.342Z" fill="#FF3399"/>
</g>
<g opacity="0.631877">
<path d="M207.51 45.1534L214.796 45.5975L216.334 53.7646L209.049 53.3211L207.51 45.1534Z" fill="#FF3399"/>
</g>
<g opacity="0.354678">
<path d="M79.0877 56.2565L72.3664 59.1022L67.3533 52.4737L74.0749 49.6275L79.0877 56.2565Z" fill="#FFA63A"/>
</g>
<g opacity="0.731663">
<path d="M11.3308 157.561L18.1672 160.119L17.2448 168.378L10.4085 165.82L11.3308 157.561Z" fill="#3E80FF"/>
</g>
<path d="M15.001 86.3613C14.9115 85.6822 14.7131 85.0496 14.1923 84.5582C13.5179 83.9215 12.5066 83.8318 11.6722 83.4273C10.8923 83.049 10.2612 82.3741 9.93618 81.5708C9.47331 80.4272 9.61161 79.0591 8.92538 78.0338C8.31868 77.1274 7.20715 76.7088 6.14242 76.4723C5.07768 76.2358 3.96039 76.1169 3.007 75.5874C2.22602 75.1535 1.63107 74.4897 1.09375 73.7659" stroke="#FFA63A" stroke-opacity="0.999214" stroke-width="1.91093" stroke-miterlimit="10"/>
<path d="M222.56 7.56466C221.5 7.409 220.4 7.48088 219.465 7.98124C218.327 8.5899 217.538 9.95961 217.899 11.1984C218.327 12.6659 220.071 13.3285 221.599 13.3306C222.087 13.3313 222.588 13.2834 223.025 13.0668C223.982 12.5921 224.389 11.457 224.622 10.414C225.248 7.60737 225.251 4.66328 224.63 1.85548C224.516 1.3404 224.38 0.826267 224.2 0.330566" stroke="#FFA63A" stroke-width="1.93472" stroke-miterlimit="10"/>
<path d="M101.749 47.5647C100.69 47.409 99.5895 47.4809 98.6541 47.9812C97.5161 48.5899 96.7271 49.9596 97.0886 51.1984C97.5166 52.6659 99.2602 53.3285 100.789 53.3306C101.276 53.3313 101.777 53.2834 102.214 53.0668C103.172 52.5921 103.579 51.457 103.811 50.414C104.438 47.6074 104.441 44.6633 103.82 41.8555C103.706 41.3404 103.569 40.8263 103.389 40.3306" stroke="#FFA63A" stroke-width="1.93472" stroke-miterlimit="10"/>
<path d="M33.4284 115.331C33.3531 115.493 33.2627 115.65 33.1539 115.8C32.2512 117.047 30.4966 117.253 28.9575 117.244C27.4182 117.235 25.7268 117.169 24.5242 118.129C23.0946 119.271 22.9594 121.424 23.412 123.197C23.6678 124.198 24.0269 125.397 23.3273 126.158C22.811 126.721 21.9503 126.751 21.1867 126.757C18.4898 126.78 15.3398 127.282 14.0595 129.656C13.0078 131.605 13.4597 134.465 11.5972 135.664C9.933 136.736 7.60311 135.602 5.79047 136.397C5.47547 136.535 5.20218 136.716 4.96094 136.93" stroke="#FF3399" stroke-width="2.50612" stroke-miterlimit="10"/>
<path d="M85.7616 25.3306C85.5814 24.0004 86.8115 22.8299 87.0816 21.4836C87.2865 20.4616 86.8741 19.3402 86.0561 18.6941C84.7504 17.6634 82.5318 17.7199 81.8806 16.1891C81.2905 14.8018 82.5454 13.2098 82.1729 11.7488C81.9516 10.8814 81.2018 10.2577 80.4453 9.7793C79.5647 9.22271 78.5574 8.70556 77.7891 8.02246" stroke="#FF3399" stroke-width="1.87949" stroke-miterlimit="10"/>
<path d="M187.973 25.6387C187.792 24.3085 189.022 23.138 189.292 21.7917C189.497 20.7697 189.085 19.6483 188.267 19.0022C186.961 17.9715 184.743 18.028 184.092 16.4972C183.501 15.1099 184.756 13.5179 184.384 12.0569C184.163 11.1895 183.413 10.5658 182.656 10.0874C181.776 9.53081 180.768 9.01367 180 8.33057" stroke="#FF3399" stroke-width="1.87949" stroke-miterlimit="10"/>
<path d="M143 25.4913C141.491 25.9162 139.768 25.4877 138.507 24.5216C137.299 23.5965 136.437 22.1302 136.523 20.6115C136.609 19.093 137.811 17.6283 139.328 17.5137C139.72 17.4841 140.13 17.5451 140.458 17.7609C140.786 17.9767 141.015 18.3666 140.969 18.7566C140.919 19.1723 140.585 19.4974 140.231 19.7201C138.714 20.673 136.683 20.3101 135.124 19.4273C133.804 18.6793 132.659 17.5528 132.098 16.1425C131.95 15.7712 131.845 15.3834 131.783 14.9888" stroke="#3E80FF" stroke-width="1.07057" stroke-miterlimit="10"/>
<path d="M236.797 74.8148C236.472 74.3058 235.975 73.9089 235.386 73.7662C235.083 73.6924 234.747 73.6832 234.473 73.8342C234.087 74.0478 233.921 74.5474 234.006 74.9804C234.091 75.4135 234.383 75.7811 234.725 76.0607C235.779 76.9258 237.349 77.0373 238.583 76.4559C239.817 75.8748 240.704 74.6732 241.045 73.3528C241.313 72.3177 241.241 71.1334 240.578 70.2942C240.169 69.776 239.552 69.4264 238.897 69.3419C238.232 69.2559 237.379 69.6556 237.457 70.3216C237.486 70.5756 237.65 70.7936 237.83 70.9744C238.765 71.9099 240.256 72.1288 241.528 71.7693C242.576 71.4736 243.492 70.8409 244.284 70.0858" stroke="#3E80FF" stroke-width="1.77374" stroke-miterlimit="10"/>
<path d="M247 145.97C247.227 145.491 247.587 145.078 248.049 144.817C248.956 144.304 250.073 144.373 251.102 144.535C252.131 144.697 253.184 144.936 254.202 144.715C255.182 144.503 256.124 143.704 256.147 142.717" stroke="#FF3399" stroke-width="2.2155" stroke-miterlimit="10"/>
<path d="M149.236 87.829C150.689 87.9339 152.202 87.889 153.625 87.5745" stroke="#666666" stroke-width="4.829" stroke-miterlimit="10"/>
<defs>
<linearGradient id="paint0_linear_3361_6097" x1="188.847" y1="192.904" x2="135.609" y2="189.989" gradientUnits="userSpaceOnUse">
<stop offset="0.160244" stop-color="#8663F6"/>
<stop offset="0.535257" stop-color="#C470F5"/>
<stop offset="0.922419" stop-color="#57C2FF"/>
</linearGradient>
</defs>
</svg>
