<svg width="16" height="16" viewBox="0 0 16 16" fill="none" xmlns="http://www.w3.org/2000/svg">
<path d="M7.02654 6.79185C7.83187 6.79185 8.4852 6.13585 8.4852 5.33318C8.4852 4.53051 7.8292 3.87451 7.02654 3.87451C6.22387 3.87451 5.56787 4.53051 5.56787 5.33318C5.56787 6.13585 6.2212 6.79185 7.02654 6.79185ZM7.02654 4.40518C7.53854 4.40518 7.95187 4.82118 7.95187 5.33051C7.95187 5.83985 7.53587 6.25585 7.02654 6.25585C6.5172 6.25585 6.1012 5.83985 6.1012 5.33051C6.1012 4.82118 6.51454 4.40518 7.02654 4.40518Z" fill="black"/>
<path d="M4.36003 6.53857C3.5547 6.53857 2.90137 7.19457 2.90137 7.99724C2.90137 8.79991 3.55737 9.45591 4.36003 9.45591C5.1627 9.45591 5.8187 8.79991 5.8187 7.99724C5.8187 7.19457 5.16537 6.53857 4.36003 6.53857ZM4.36003 8.92524C3.84803 8.92524 3.4347 8.50924 3.4347 7.99991C3.4347 7.49057 3.8507 7.07457 4.36003 7.07457C4.86937 7.07457 5.28537 7.49057 5.28537 7.99991C5.28537 8.50924 4.86937 8.92524 4.36003 8.92524Z" fill="black"/>
<path d="M8.4852 10.6667C8.4852 9.86134 7.8292 9.20801 7.02654 9.20801C6.22387 9.20801 5.56787 9.86401 5.56787 10.6667C5.56787 11.4693 6.22387 12.1253 7.02654 12.1253C7.8292 12.1253 8.4852 11.472 8.4852 10.6667ZM6.09854 10.6667C6.09854 10.1547 6.51454 9.74134 7.02387 9.74134C7.5332 9.74134 7.9492 10.1573 7.9492 10.6667C7.9492 11.176 7.5332 11.592 7.02387 11.592C6.51454 11.592 6.09854 11.1787 6.09854 10.6667Z" fill="black"/>
<path d="M9.69353 9.45884C10.4989 9.45884 11.1522 8.80284 11.1522 8.00017C11.1522 7.1975 10.4962 6.5415 9.69353 6.5415C8.89086 6.5415 8.23486 7.1975 8.23486 8.00017C8.23486 8.80284 8.8882 9.45884 9.69353 9.45884ZM9.69353 7.07217C10.2055 7.07217 10.6189 7.48817 10.6189 7.9975C10.6189 8.50684 10.2029 8.92284 9.69353 8.92284C9.1842 8.92284 8.7682 8.50684 8.7682 7.9975C8.7682 7.48817 9.18153 7.07217 9.69353 7.07217Z" fill="black"/>
<path d="M11.0055 12.6586C10.6802 12.7333 10.3228 12.8106 9.93616 12.8853C11.5975 11.8906 12.7175 10.0746 12.7175 7.99997C12.7175 4.86131 10.1628 2.30664 7.02416 2.30664C3.8855 2.30664 1.3335 4.86131 1.3335 7.99997C1.3335 11.1386 3.88816 13.6933 7.02683 13.6933C8.84283 13.6933 10.1068 13.408 11.1228 13.1813C12.5602 12.8586 13.2802 12.696 14.2135 13.6186C14.3175 13.7226 14.4882 13.7226 14.5895 13.616C14.6935 13.512 14.6908 13.3413 14.5868 13.24C13.4482 12.1093 12.4748 12.328 11.0055 12.6586ZM1.86683 7.99997C1.86683 5.15464 4.1815 2.83997 7.02683 2.83997C9.87216 2.83997 12.1842 5.15464 12.1842 7.99997C12.1842 10.8453 9.8695 13.16 7.02416 13.16C4.17883 13.16 1.86683 10.8453 1.86683 7.99997Z" fill="black"/>
</svg>
