<svg width="20" height="16" viewBox="0 0 20 16" fill="none" xmlns="http://www.w3.org/2000/svg">
<path d="M18.75 3.5C19.1642 3.5 19.5 3.16421 19.5 2.75C19.5 2.33579 19.1642 2 18.75 2V2.75V3.5ZM0.75 12C0.335786 12 -5.96046e-08 12.3358 0 12.75C5.96046e-08 13.1642 0.335787 13.5 0.75 13.5L0.75 12.75L0.75 12ZM8.75 2.75V3.5L18.75 3.5V2.75V2L8.75 2V2.75ZM0.75 2.75H0C0 4.26878 1.23122 5.5 2.75 5.5V4.75V4C2.05964 4 1.5 3.44036 1.5 2.75H0.75ZM2.75 4.75V5.5C4.26878 5.5 5.5 4.26878 5.5 2.75H4.75H4C4 3.44036 3.44036 4 2.75 4V4.75ZM4.75 2.75H5.5C5.5 1.23122 4.26878 0 2.75 0V0.75V1.5C3.44036 1.5 4 2.05964 4 2.75H4.75ZM2.75 0.75V0C1.23122 0 0 1.23122 0 2.75H0.75H1.5C1.5 2.05964 2.05964 1.5 2.75 1.5V0.75ZM10.75 12.75V12L0.75 12L0.75 12.75L0.75 13.5L10.75 13.5V12.75ZM18.75 12.75H18C18 13.4404 17.4404 14 16.75 14V14.75V15.5C18.2688 15.5 19.5 14.2688 19.5 12.75H18.75ZM16.75 14.75V14C16.0596 14 15.5 13.4404 15.5 12.75H14.75H14C14 14.2688 15.2312 15.5 16.75 15.5V14.75ZM14.75 12.75H15.5C15.5 12.0596 16.0596 11.5 16.75 11.5V10.75V10C15.2312 10 14 11.2312 14 12.75H14.75ZM16.75 10.75V11.5C17.4404 11.5 18 12.0596 18 12.75H18.75H19.5C19.5 11.2312 18.2688 10 16.75 10V10.75Z" fill="url(#paint0_linear_834_17378)"/>
<defs>
<linearGradient id="paint0_linear_834_17378" x1="36.9167" y1="17.9907" x2="20.8785" y2="33.6506" gradientUnits="userSpaceOnUse">
<stop offset="0.160244" stop-color="#8663F6"/>
<stop offset="0.535257" stop-color="#C470F5"/>
<stop offset="0.922419" stop-color="#57C2FF"/>
</linearGradient>
</defs>
</svg>
