<svg width="16" height="16" viewBox="0 0 16 16" fill="none" xmlns="http://www.w3.org/2000/svg">
<g clip-path="url(#clip0_1248_4943)">
<path d="M5.57386 0.526251C3.97522 1.08084 2.59654 2.13346 1.64035 3.5295C0.684163 4.92555 0.200854 6.59143 0.261418 8.28246C0.321982 9.97349 0.923226 11.6005 1.97684 12.9246C3.03045 14.2487 4.48089 15.2 6.11511 15.6388C7.44002 15.9806 8.82813 15.9956 10.1601 15.6825C11.3668 15.4115 12.4823 14.8317 13.3976 14C14.3502 13.1079 15.0417 11.9731 15.3976 10.7175C15.7845 9.35209 15.8534 7.91617 15.5989 6.52H8.15886V9.60625H12.4676C12.3815 10.0985 12.197 10.5683 11.9251 10.9875C11.6531 11.4068 11.2994 11.7669 10.8851 12.0463C10.359 12.3943 9.76586 12.6285 9.14387 12.7338C8.52005 12.8497 7.88019 12.8497 7.25636 12.7338C6.6241 12.603 6.02599 12.3421 5.50011 11.9675C4.6553 11.3695 4.02096 10.5199 3.68762 9.54C3.34863 8.54174 3.34863 7.45951 3.68762 6.46125C3.9249 5.76152 4.31716 5.12442 4.83511 4.5975C5.42785 3.98344 6.17828 3.5445 7.00406 3.32885C7.82984 3.1132 8.69906 3.12916 9.51637 3.375C10.1548 3.57099 10.7387 3.91342 11.2214 4.375C11.7072 3.89167 12.1922 3.40708 12.6764 2.92125C12.9264 2.66 13.1989 2.41125 13.4451 2.14375C12.7083 1.4581 11.8435 0.924573 10.9001 0.573751C9.18225 -0.0500112 7.30259 -0.0667743 5.57386 0.526251Z" fill="white"/>
<path d="M5.57372 0.526249C7.3023 -0.0671802 9.18196 -0.0508584 10.9 0.572499C11.8435 0.925703 12.708 1.4618 13.4437 2.15C13.1937 2.4175 12.93 2.6675 12.675 2.9275C12.19 3.41167 11.7054 3.89417 11.2212 4.375C10.7385 3.91342 10.1547 3.57099 9.51622 3.375C8.69919 3.1283 7.82999 3.11141 7.00399 3.32618C6.178 3.54095 5.42711 3.97908 4.83372 4.5925C4.31576 5.11942 3.9235 5.75652 3.68622 6.45625L1.09497 4.45C2.02248 2.6107 3.62841 1.20378 5.57372 0.526249Z" fill="#E33629"/>
<path d="M0.407438 6.4375C0.546714 5.74724 0.777942 5.07878 1.09494 4.45L3.68619 6.46125C3.34721 7.45951 3.34721 8.54174 3.68619 9.54C2.82285 10.2067 1.9591 10.8767 1.09494 11.55C0.301376 9.9704 0.0593537 8.17063 0.407438 6.4375Z" fill="#F8BD00"/>
<path d="M8.15876 6.51875H15.5988C15.8533 7.91492 15.7844 9.35084 15.3975 10.7162C15.0416 11.9718 14.3501 13.1067 13.3975 13.9987C12.5613 13.3462 11.7213 12.6987 10.885 12.0462C11.2996 11.7666 11.6535 11.4061 11.9254 10.9864C12.1973 10.5667 12.3817 10.0964 12.4675 9.60375H8.15876C8.15751 8.57625 8.15876 7.5475 8.15876 6.51875Z" fill="#587DBD"/>
<path d="M1.09375 11.55C1.95792 10.8833 2.82167 10.2133 3.685 9.54C4.01901 10.5202 4.65426 11.3699 5.5 11.9675C6.02751 12.3403 6.62691 12.5992 7.26 12.7275C7.88382 12.8435 8.52368 12.8435 9.1475 12.7275C9.76949 12.6222 10.3626 12.388 10.8888 12.04C11.725 12.6925 12.565 13.34 13.4012 13.9925C12.4861 14.8247 11.3705 15.4049 10.1637 15.6763C8.83176 15.9894 7.44365 15.9744 6.11875 15.6325C5.07088 15.3527 4.09209 14.8595 3.24375 14.1838C2.34583 13.4709 1.61244 12.5725 1.09375 11.55Z" fill="#319F43"/>
</g>
<defs>
<clipPath id="clip0_1248_4943">
<rect width="16" height="16" fill="white"/>
</clipPath>
</defs>
</svg>
