  <svg width="32" height="32" viewBox="0 0 32 32" fill="none" xmlns="http://www.w3.org/2000/svg">
  <g clip-path="url(#clip0_879_4815)">
  <path fill-rule="evenodd" clip-rule="evenodd" d="M30 6C30 9.32 27.32 12 24 12C20.68 12 18 9.32 18 6C18 2.68 20.68 0 24 0C27.32 0 30 2.68 30 6ZM24 10C24.5254 10.0001 25.0457 9.89677 25.5312 9.69582C26.0167 9.49488 26.4578 9.20028 26.8294 8.82884C27.201 8.45741 27.4959 8.01641 27.6971 7.53104C27.8982 7.04567 28.0019 6.52542 28.002 6C28.0021 5.47458 27.8988 4.95428 27.6978 4.46881C27.4969 3.98333 27.2023 3.54219 26.8308 3.17057C26.4594 2.79895 26.0184 2.50413 25.533 2.30294C25.0477 2.10175 24.5274 1.99813 24.002 1.998C22.9409 1.99773 21.9231 2.41901 21.1726 3.16916C20.4221 3.9193 20.0003 4.93687 20 5.998C19.9997 7.05913 20.421 8.07691 21.1712 8.82743C21.9213 9.57795 22.9389 9.99973 24 10Z" fill="#6E6E6E"/>
  <path d="M17.8798 16.58C19.1858 15.13 21.1998 14 23.9998 14C26.7998 14 28.8198 15.13 30.1198 16.58C31.3918 17.994 32.0018 19.72 32.0018 21C32.0018 21.2652 31.8965 21.5196 31.7089 21.7071C31.5214 21.8946 31.2671 22 31.0018 22C30.7366 22 30.4823 21.8946 30.2947 21.7071C30.1072 21.5196 30.0018 21.2652 30.0018 21C30.0018 20.272 29.6118 19.006 28.6338 17.92C27.6898 16.87 26.2138 16.002 23.9938 16.002C21.7738 16.002 20.3138 16.872 19.3538 17.92C18.3758 19.006 17.9858 20.28 17.9858 21C17.9858 21.2652 17.8805 21.5196 17.6929 21.7071C17.5054 21.8946 17.2511 22 16.9858 22C16.7206 22 16.4663 21.8946 16.2787 21.7071C16.0912 21.5196 15.9858 21.2652 15.9858 21C15.9858 19.728 16.5958 18 17.8678 16.58H17.8798Z" fill="#6E6E6E"/>
  <path fill-rule="evenodd" clip-rule="evenodd" d="M14 16C14 19.32 11.32 22 8 22C4.68 22 2 19.32 2 16C2 12.68 4.68 10 8 10C11.32 10 14 12.68 14 16ZM8 20C9.06113 20.0003 10.0789 19.579 10.8294 18.8288C11.5799 18.0787 12.0017 17.0611 12.002 16C12.0023 14.9389 11.581 13.9211 10.8308 13.1706C10.0807 12.4201 9.06313 11.9983 8.002 11.998C6.94087 11.9977 5.92309 12.419 5.17257 13.1692C4.42205 13.9193 4.00027 14.9369 4 15.998C3.99973 17.0591 4.42101 18.0769 5.17116 18.8274C5.9213 19.5779 6.93887 19.9997 8 20Z" fill="#6E6E6E"/>
  <path d="M1.88179 26.6C3.18779 25.15 5.20179 24.02 8.00179 24.02C10.8018 24.02 12.8218 25.15 14.1218 26.6C15.3938 28.014 16.0038 29.74 16.0038 31.02C16.0038 31.2852 15.8984 31.5396 15.7109 31.7271C15.5234 31.9146 15.269 32.02 15.0038 32.02C14.7386 32.02 14.4842 31.9146 14.2967 31.7271C14.1091 31.5396 14.0038 31.2852 14.0038 31.02C14.0038 30.292 13.6138 29.026 12.6358 27.94C11.6918 26.89 10.2158 26.02 7.99579 26.02C5.77579 26.02 4.31579 26.89 3.35579 27.94C2.37779 29.026 1.98779 30.3 1.98779 31.02C1.98779 31.2852 1.88244 31.5396 1.6949 31.7271C1.50736 31.9146 1.25301 32.02 0.987793 32.02C0.722576 32.02 0.468223 31.9146 0.280686 31.7271C0.0931498 31.5396 -0.012207 31.2852 -0.012207 31.02C-0.012207 29.748 0.597793 28.02 1.86979 26.6H1.88179Z" fill="#6E6E6E"/>
  </g>
  <defs>
  <clipPath id="clip0_879_4815">
  <rect width="32" height="32" fill="white"/>
  </clipPath>
  </defs>
  </svg>