<svg width="28" height="28" viewBox="0 0 28 28" fill="none" xmlns="http://www.w3.org/2000/svg">
<path d="M18.6663 24.5V22.1667C18.6663 20.929 18.1747 19.742 17.2995 18.8668C16.4243 17.9917 15.2374 17.5 13.9997 17.5H6.99967C5.762 17.5 4.57501 17.9917 3.69984 18.8668C2.82467 19.742 2.33301 20.929 2.33301 22.1667V24.5" stroke="#2A2A2A" stroke-width="2.1" stroke-linecap="round" stroke-linejoin="round"/>
<path d="M18.667 3.64941C19.6677 3.90885 20.554 4.49322 21.1866 5.31082C21.8193 6.12842 22.1626 7.13295 22.1626 8.16675C22.1626 9.20054 21.8193 10.2051 21.1866 11.0227C20.554 11.8403 19.6677 12.4246 18.667 12.6841" stroke="#2A2A2A" stroke-width="2.1" stroke-linecap="round" stroke-linejoin="round"/>
<path d="M25.666 24.5007V22.1673C25.6652 21.1334 25.3211 20.1289 24.6876 19.3117C24.0541 18.4945 23.1672 17.9108 22.166 17.6523" stroke="#2A2A2A" stroke-width="2.1" stroke-linecap="round" stroke-linejoin="round"/>
<path d="M10.5002 12.8338C13.0775 12.8338 15.1668 10.7445 15.1668 8.16715C15.1668 5.58983 13.0775 3.50049 10.5002 3.50049C7.92283 3.50049 5.8335 5.58983 5.8335 8.16715C5.8335 10.7445 7.92283 12.8338 10.5002 12.8338Z" stroke="#2A2A2A" stroke-width="2.1" stroke-linecap="round" stroke-linejoin="round"/>
</svg>
