<svg width="24" height="24" viewBox="0 0 24 24" fill="none" xmlns="http://www.w3.org/2000/svg">
<path d="M21.2809 13.3274C21.0409 12.7199 20.7709 12.1124 20.4747 11.5612C19.4584 9.67117 19.3909 8.11117 19.4097 7.51117C19.4172 7.27867 19.3009 7.05742 19.0947 6.93367C18.8847 6.80617 18.6222 6.83617 18.4159 6.97117C17.2534 7.73617 16.6347 9.17992 16.9384 10.6049C17.2009 11.8237 17.5947 12.9112 17.5947 12.9112L16.2859 11.0212L12.5284 5.02867C12.2209 4.51867 11.5759 4.34617 11.0772 4.64242C10.5747 4.93867 10.3984 5.59867 10.6797 6.13117L13.8147 12.0262L8.97719 7.16992C8.55344 6.74618 7.88219 6.74618 7.46969 7.16992L7.42469 7.21867C7.01219 7.64617 7.01219 8.33617 7.42469 8.77492L12.0822 13.7212L6.91094 10.2749C6.41219 9.94117 5.74844 10.0874 5.42969 10.5974L5.42219 10.6087C5.11844 11.0999 5.23844 11.7562 5.69969 12.1049L10.8447 15.9899L6.77219 14.0887C6.24719 13.8449 5.63594 14.1112 5.44844 14.6699C5.29094 15.1424 5.49344 15.6674 5.92469 15.9037L10.0347 18.2774C10.3722 18.4724 10.6834 18.7124 10.9609 18.9899L11.9847 20.0174C14.3472 22.3912 18.2284 22.3387 20.3622 19.7474C20.4484 19.6424 20.5347 19.5299 20.6172 19.4174C21.8734 17.6699 22.0797 15.3412 21.2884 13.3274H21.2809Z" fill="#F1C1AD"/>
<path d="M15.375 6.375C15.1688 6.375 15 6.20625 15 6C15 5.17125 14.3288 4.5 13.5 4.5C13.2937 4.5 13.125 4.33125 13.125 4.125C13.125 3.91875 13.2937 3.75 13.5 3.75C14.7413 3.75 15.75 4.75875 15.75 6C15.75 6.20625 15.5812 6.375 15.375 6.375Z" fill="#8C5E44"/>
<path d="M16.875 6C16.6688 6 16.5 5.83125 16.5 5.625C16.5 4.1775 15.3225 3 13.875 3C13.6687 3 13.5 2.83125 13.5 2.625C13.5 2.41875 13.6687 2.25 13.875 2.25C15.735 2.25 17.25 3.765 17.25 5.625C17.25 5.83125 17.0812 6 16.875 6Z" fill="#8C5E44"/>
<path d="M6 18.75C4.75875 18.75 3.75 17.7413 3.75 16.5C3.75 16.2937 3.91875 16.125 4.125 16.125C4.33125 16.125 4.5 16.2937 4.5 16.5C4.5 17.3288 5.17125 18 6 18C6.20625 18 6.375 18.1688 6.375 18.375C6.375 18.5812 6.20625 18.75 6 18.75Z" fill="#8C5E44"/>
<path d="M5.625 20.25C3.765 20.25 2.25 18.735 2.25 16.875C2.25 16.6687 2.41875 16.5 2.625 16.5C2.83125 16.5 3 16.6687 3 16.875C3 18.3225 4.1775 19.5 5.625 19.5C5.83125 19.5 6 19.6688 6 19.875C6 20.0812 5.83125 20.25 5.625 20.25Z" fill="#8C5E44"/>
</svg>
