<svg width="16" height="16" viewBox="0 0 16 16" fill="none" xmlns="http://www.w3.org/2000/svg">
<path d="M11.4688 5.65631C11.7516 5.65631 12.0228 5.54397 12.2228 5.34401C12.4228 5.14405 12.5351 4.87285 12.5351 4.59006C12.5351 4.30727 12.4228 4.03607 12.2228 3.83611C12.0228 3.63615 11.7516 3.52381 11.4688 3.52381C11.4651 3.52393 11.4615 3.52264 11.4587 3.52021C11.4559 3.51777 11.4541 3.51437 11.4537 3.51068C11.3948 2.63489 11.0053 1.81419 10.3641 1.21471C9.72293 0.615229 8.87793 0.281738 8.00016 0.281738C7.12238 0.281738 6.27738 0.615229 5.6362 1.21471C4.99501 1.81419 4.60553 2.63489 4.54659 3.51068C4.54619 3.51441 4.54439 3.51784 4.54156 3.5203C4.53874 3.52275 4.53509 3.52405 4.53134 3.52393C4.25416 3.52387 3.98785 3.63175 3.78885 3.8247C3.58986 4.01765 3.47382 4.28051 3.46534 4.55756C3.46471 4.70222 3.49277 4.84557 3.54791 4.97932C3.60304 5.11306 3.68415 5.23455 3.78654 5.33674C3.88893 5.43894 4.01057 5.51981 4.14443 5.57468C4.27828 5.62956 4.42168 5.65735 4.56634 5.65644H4.59247C7.44822 15.6496 5.40172 8.53518 7.52147 15.3689C7.55367 15.4705 7.61735 15.5592 7.7033 15.6221C7.78924 15.6851 7.89298 15.7191 7.99952 15.7192C8.10606 15.7193 8.20987 15.6855 8.29593 15.6227C8.38198 15.5599 8.44583 15.4713 8.47822 15.3698C10.2791 9.42818 8.27084 16.6336 11.4075 5.65644L11.4688 5.65631ZM3.90259 4.57106C3.90756 4.40763 3.97599 4.25256 4.09337 4.13873C4.21074 4.02491 4.36784 3.96127 4.53134 3.96131C4.64599 3.96115 4.75633 3.91757 4.84014 3.83935C4.92396 3.76112 4.97503 3.65405 4.98309 3.53968C5.03454 2.77455 5.37477 2.05754 5.93492 1.53379C6.49507 1.01004 7.23329 0.718674 8.00016 0.718674C8.76702 0.718674 9.50524 1.01004 10.0654 1.53379C10.6255 2.05754 10.9658 2.77455 11.0172 3.53968C11.0252 3.65404 11.0763 3.76111 11.1601 3.83934C11.2439 3.91757 11.3542 3.96115 11.4688 3.96131C11.6356 3.96131 11.7955 4.02755 11.9134 4.14547C12.0313 4.26338 12.0976 4.42331 12.0976 4.59006C12.0976 4.75681 12.0313 4.91674 11.9134 5.03465C11.7955 5.15257 11.6356 5.21881 11.4688 5.21881H8.95247C8.79506 5.21901 8.64415 5.28163 8.53284 5.39293C8.42154 5.50424 8.35892 5.65515 8.35872 5.81256V7.50006C8.35994 7.53133 8.35463 7.56251 8.34313 7.59161C8.33162 7.62072 8.31417 7.6471 8.29189 7.66907C8.26961 7.69105 8.24299 7.70813 8.21373 7.71924C8.18447 7.73034 8.15322 7.73522 8.12197 7.73356C8.06635 7.72922 8.01442 7.70404 7.97655 7.66307C7.93868 7.6221 7.91767 7.56835 7.91772 7.51256V6.35131C7.91753 6.26051 7.89862 6.17073 7.86216 6.08757C7.82569 6.00441 7.77247 5.92967 7.70581 5.86802C7.63915 5.80637 7.56048 5.75913 7.47474 5.72927C7.38899 5.6994 7.298 5.68754 7.20747 5.69444C7.03981 5.7109 6.88445 5.78974 6.77217 5.91533C6.65989 6.04093 6.59888 6.20411 6.60122 6.37256V6.68381C6.60244 6.71508 6.59713 6.74626 6.58563 6.77536C6.57412 6.80446 6.55667 6.83085 6.53439 6.85282C6.51211 6.8748 6.48549 6.89188 6.45623 6.90299C6.42697 6.91409 6.39572 6.91897 6.36447 6.91731C6.30884 6.91297 6.25689 6.8878 6.219 6.84683C6.18112 6.80586 6.16008 6.75211 6.16009 6.69631V5.81256C6.15989 5.65515 6.09727 5.50424 5.98597 5.39293C5.87466 5.28163 5.72375 5.21901 5.56634 5.21881H4.56634C4.39255 5.22051 4.22515 5.15332 4.10077 5.03194C3.97638 4.91055 3.90513 4.74484 3.90259 4.57106ZM9.51372 10.6901H6.48622C6.44947 10.5617 6.61897 11.1544 6.12797 9.43756H9.87234L9.51372 10.6901ZM8.06147 15.2363C8.05738 15.2495 8.04914 15.2611 8.03799 15.2692C8.02683 15.2774 8.01334 15.2817 7.99952 15.2816C7.98569 15.2815 7.97227 15.277 7.96123 15.2687C7.95019 15.2604 7.94212 15.2487 7.93822 15.2354L6.61372 11.1276H9.38609L8.06147 15.2363ZM9.99747 9.00006H6.00297L5.04747 5.65631H5.56622C5.60765 5.65634 5.64737 5.67282 5.67667 5.70211C5.70596 5.73141 5.72243 5.77113 5.72247 5.81256V6.69631C5.72181 6.78371 5.73856 6.87037 5.77174 6.95122C5.80493 7.03208 5.85388 7.10552 5.91574 7.16726C5.97761 7.229 6.05114 7.27781 6.13207 7.31083C6.21299 7.34386 6.29968 7.36044 6.38707 7.35961C6.47447 7.35878 6.56083 7.34056 6.64111 7.306C6.72139 7.27145 6.79399 7.22125 6.85467 7.15835C6.91535 7.09544 6.9629 7.02109 6.99454 6.93961C7.02618 6.85814 7.04128 6.77118 7.03897 6.68381V6.37256C7.03692 6.31459 7.05627 6.2579 7.09334 6.21329C7.13041 6.16868 7.18261 6.13928 7.23997 6.13068C7.27052 6.12803 7.30129 6.13177 7.33032 6.14165C7.35935 6.15154 7.386 6.16737 7.40857 6.18812C7.43115 6.20888 7.44916 6.2341 7.46145 6.2622C7.47374 6.2903 7.48005 6.32064 7.47997 6.35131V7.51256C7.47992 7.59956 7.49713 7.6857 7.53058 7.766C7.56403 7.84631 7.61307 7.91919 7.67486 7.98043C7.73666 8.04167 7.80997 8.09005 7.89058 8.12278C7.97118 8.1555 8.05748 8.17193 8.14447 8.1711C8.23146 8.17028 8.31742 8.15222 8.39739 8.11796C8.47736 8.08371 8.54975 8.03394 8.61036 7.97154C8.67098 7.90914 8.71863 7.83535 8.75055 7.75442C8.78247 7.67349 8.79804 7.58704 8.79634 7.50006V5.81256C8.79641 5.77114 8.81289 5.73144 8.84218 5.70215C8.87147 5.67286 8.91117 5.65638 8.95259 5.65631H10.9526L9.99747 9.00006Z" fill="black"/>
<path d="M8.77753 1.87402C9.14674 2.02728 9.46221 2.28659 9.68402 2.61917C9.90584 2.95174 10.024 3.34263 10.0237 3.74239C10.0237 3.80041 10.0467 3.85605 10.0877 3.89707C10.1287 3.9381 10.1844 3.96114 10.2424 3.96114C10.3004 3.96114 10.3561 3.9381 10.3971 3.89707C10.4381 3.85605 10.4612 3.80041 10.4612 3.74239C10.4617 3.25629 10.318 2.78095 10.0483 2.3765C9.77866 1.97206 9.39509 1.65668 8.94615 1.47027C8.89261 1.44791 8.83238 1.44773 8.77871 1.46978C8.72504 1.49183 8.68233 1.53429 8.65997 1.58783C8.6376 1.64137 8.63743 1.7016 8.65948 1.75527C8.68152 1.80894 8.72399 1.85166 8.77753 1.87402Z" fill="black"/>
<path d="M8.00589 1.71875H8.01002C8.06803 1.71921 8.12386 1.69661 8.16521 1.65592C8.20656 1.61522 8.23005 1.55977 8.23052 1.50175C8.23098 1.44373 8.20838 1.38791 8.16769 1.34656C8.12699 1.30521 8.07153 1.28171 8.01352 1.28125H8.00002C7.97172 1.28135 7.94371 1.28704 7.91762 1.298C7.89153 1.30897 7.86786 1.32498 7.84798 1.34513C7.82811 1.36527 7.81241 1.38915 7.8018 1.41539C7.79118 1.44162 7.78586 1.4697 7.78614 1.498C7.78669 1.5562 7.80999 1.61188 7.85105 1.65314C7.89212 1.69439 7.94769 1.71794 8.00589 1.71875Z" fill="black"/>
</svg>
