<svg width="32" height="32" viewBox="0 0 32 32" fill="none" xmlns="http://www.w3.org/2000/svg">
<path d="M28 16V25.3333C28 26.0406 27.719 26.7189 27.219 27.219C26.7189 27.7191 26.0406 28 25.3333 28H21.3333M28 16C19.4107 16 14.5267 18.6467 11.9267 21.6573M28 16V14M21.3333 28H6.66667C5.95942 28 5.28115 27.7191 4.78105 27.219C4.28095 26.7189 4 26.0406 4 25.3333V21.3333M21.3333 28C19.0613 24.3093 15.4307 22.4693 11.9267 21.6573M11.9267 21.6573C8.84933 20.9427 5.87067 21.0213 4 21.3333M4 21.3333V6.66667C4 5.95943 4.28095 5.28115 4.78105 4.78105C5.28115 4.28096 5.95942 4.00001 6.66667 4.00001H17.3333M25.3333 2.66667V6.66667M25.3333 6.66667V10.6667M25.3333 6.66667H29.3333M25.3333 6.66667H21.3333M11.3333 9.33334C10.6667 9.33334 9.33333 9.73334 9.33333 11.3333C9.33333 12.9333 10.6667 13.3333 11.3333 13.3333C12 13.3333 13.3333 12.9333 13.3333 11.3333C13.3333 9.73334 12 9.33334 11.3333 9.33334Z" stroke="#969696" stroke-width="1.5" stroke-linecap="round" stroke-linejoin="round"/>
</svg>
