<svg width="16" height="16" viewBox="0 0 16 16" fill="none" xmlns="http://www.w3.org/2000/svg">
<path fill-rule="evenodd" clip-rule="evenodd" d="M6.44135 3.32649C6.43904 3.32688 6.43673 3.3273 6.43443 3.32775C6.00611 3.40478 5.59578 3.51486 5.20884 3.65392C4.64911 2.69644 3.81444 2.36847 3.81444 2.36847C3.70679 2.32541 3.58367 2.36211 3.51718 2.45709C2.7982 3.48421 2.79128 5.18315 2.79128 5.18315L2.7929 5.21287C2.44258 5.60178 2.17327 6.0322 2.00069 6.49131C1.51494 6.49107 1.17193 6.59097 1.17193 6.59097C1.03964 6.62956 0.963566 6.76829 1.00216 6.9006C1.04072 7.03288 1.17948 7.10896 1.31176 7.07037C1.31176 7.07037 1.52959 7.00673 1.85411 6.99067C1.80506 7.2206 1.77966 7.45605 1.77966 7.69566C1.77966 7.70009 1.77969 7.70449 1.77969 7.70884C1.21783 7.81176 0.873468 8.01407 0.873468 8.01407C0.754247 8.08319 0.713588 8.23609 0.782712 8.35531C0.851865 8.47453 1.00476 8.51519 1.12399 8.44604C1.12399 8.44604 1.38628 8.29629 1.81903 8.20963C1.85468 8.44082 1.9141 8.66689 1.99563 8.88643C1.46811 9.15642 1.0987 9.59837 1.0987 9.59837C1.01046 9.70423 1.02475 9.8618 1.13058 9.95004C1.23643 10.0383 1.39401 10.024 1.48225 9.91813C1.48225 9.91813 1.7772 9.56322 2.20105 9.34183C2.40009 9.71471 2.66511 10.0637 2.98649 10.381C3.53351 10.9211 4.24575 11.3695 5.06945 11.6851C5.08015 11.8926 5.1004 12.2938 5.05762 12.6869C5.04039 12.8453 4.95404 13.1555 4.91605 13.3296C4.88671 13.4643 4.9722 13.5974 5.10685 13.6268C5.24147 13.6561 5.37462 13.5707 5.40399 13.436C5.445 13.2478 5.53543 12.912 5.55407 12.7409C5.58697 12.4386 5.58529 12.096 5.57789 11.8586C6.29216 12.0735 7.07503 12.1926 7.89603 12.1926C8.509 12.1926 9.10073 12.1262 9.65873 12.003C9.65112 12.4471 9.76818 12.7224 9.8302 12.9513C9.86625 13.0843 10.0035 13.163 10.1365 13.1269C10.2695 13.0909 10.3482 12.9536 10.3122 12.8206C10.2532 12.603 10.1267 12.337 10.1652 11.8731C11.2259 11.5618 12.1385 11.0396 12.8056 10.381C13.1195 10.0711 13.3796 9.73089 13.577 9.36778C13.9751 9.58992 14.248 9.91813 14.248 9.91813C14.3363 10.024 14.4938 10.0383 14.5997 9.95004C14.7055 9.8618 14.7198 9.70423 14.6316 9.59837C14.6316 9.59837 14.2861 9.18473 13.7862 8.91354C13.8715 8.68951 13.9337 8.45859 13.9711 8.22225C14.368 8.30998 14.6063 8.44604 14.6063 8.44604C14.7255 8.51519 14.8784 8.47453 14.9476 8.35531C15.0167 8.23609 14.976 8.08319 14.8568 8.01407C14.8568 8.01407 14.5376 7.82656 14.0123 7.72071C14.0123 7.71232 14.0124 7.70399 14.0124 7.69566C14.0124 7.45727 13.9873 7.22306 13.9388 6.99441C14.2284 7.01482 14.4185 7.07037 14.4185 7.07037C14.5508 7.10896 14.6896 7.03288 14.7281 6.9006C14.7667 6.76829 14.6906 6.62956 14.5584 6.59097C14.5584 6.59097 14.2443 6.49952 13.7916 6.49182C13.6362 6.07834 13.4025 5.68826 13.1019 5.33086C13.102 5.33095 13.1121 5.20295 13.1121 5.20295C13.1127 5.19636 13.1129 5.18977 13.1129 5.18315C13.1129 5.18315 13.106 3.48421 12.387 2.45709C12.3205 2.36211 12.1974 2.32541 12.0898 2.36847C12.0898 2.36847 11.2355 2.70417 10.6757 3.6879C9.84312 3.37569 8.89786 3.19879 7.89603 3.19879C7.39464 3.19879 6.90745 3.24307 6.44135 3.32649ZM6.32458 3.85763C5.92467 3.9409 5.54295 4.05515 5.18466 4.19666C5.06406 4.24427 4.92707 4.19169 4.86936 4.07558C4.5479 3.42908 4.06948 3.0787 3.81082 2.92643C3.31185 3.80196 3.29148 5.04607 3.2907 5.17296L3.29975 5.28047C3.30571 5.35127 3.2812 5.42126 3.23239 5.47291C2.92788 5.79516 2.68653 6.15115 2.52285 6.53176C2.85588 6.5845 3.21627 6.69647 3.56141 6.91013C3.67856 6.98267 3.71482 7.13668 3.64228 7.25386C3.56974 7.37101 3.41573 7.40727 3.29855 7.33473C2.98628 7.14141 2.659 7.04835 2.36213 7.0099C2.31089 7.21904 2.28261 7.43387 2.27937 7.65314C2.56971 7.64124 2.89426 7.66327 3.24294 7.74363C3.37723 7.77458 3.46112 7.90872 3.43014 8.04301C3.39919 8.1773 3.26505 8.2612 3.13076 8.23025C2.83581 8.16223 2.56111 8.14276 2.31551 8.15154C2.42754 8.84751 2.79233 9.48754 3.33735 10.0257C4.36515 11.0405 6.02628 11.6932 7.89603 11.6932C9.76578 11.6932 11.4269 11.0405 12.4547 10.0257C12.999 9.48826 13.3636 8.84924 13.4761 8.15432C13.2153 8.13982 12.9193 8.15651 12.5995 8.23025C12.4652 8.2612 12.3311 8.1773 12.3001 8.04301C12.2692 7.90872 12.353 7.77458 12.4873 7.74363C12.8611 7.65745 13.2072 7.6384 13.5127 7.6562C13.5097 7.43342 13.4808 7.21518 13.4282 7.0028C13.1159 7.03615 12.7652 7.12829 12.4317 7.33473C12.3145 7.40727 12.1605 7.37101 12.088 7.25386C12.0155 7.13668 12.0517 6.98267 12.1689 6.91013C12.5341 6.68406 12.9163 6.57182 13.2655 6.5231C13.1199 6.18734 12.9139 5.87088 12.6575 5.58009C12.6128 5.52933 12.5905 5.46261 12.5959 5.39516C12.5959 5.39516 12.6135 5.17353 12.6135 5.17281C12.6128 5.04706 12.5925 3.80229 12.0934 2.92643C11.8302 3.08139 11.3393 3.44157 11.0178 4.1104C10.9605 4.22968 10.82 4.28352 10.6976 4.23306C10.4047 4.11229 10.0955 4.00993 9.77294 3.92814C9.74106 4.02069 9.67263 4.27363 9.69771 4.68706C9.70607 4.82461 9.60117 4.94309 9.46361 4.95142C9.32605 4.95978 9.20761 4.85488 9.19925 4.71732C9.17291 4.2831 9.21792 4.00038 9.2759 3.82039C8.97211 3.76547 8.65864 3.72829 8.33783 3.7104L8.34766 4.98099C8.34873 5.11879 8.23772 5.23154 8.09993 5.23261C7.9621 5.23366 7.84938 5.12265 7.8483 4.98485L7.83835 3.69835C7.49061 3.70087 7.15032 3.72598 6.82008 3.77185C6.87263 3.99765 6.91341 4.3525 6.88866 4.897C6.8824 5.03468 6.76554 5.14135 6.6279 5.13509C6.49022 5.12885 6.38355 5.012 6.38981 4.87432C6.41411 4.33955 6.36461 4.02063 6.32458 3.85763ZM7.78214 7.53958L7.53073 7.29167C7.46169 7.2236 7.4468 7.12886 7.49255 7.04859C7.53831 6.96835 7.6364 6.91708 7.74427 6.91705H8.3194C8.42724 6.91708 8.52536 6.96835 8.57109 7.04859C8.61684 7.12886 8.60195 7.2236 8.53291 7.29167L8.2815 7.53958V7.94183L8.71155 8.78063C8.77441 8.90327 8.7259 9.05389 8.60327 9.11675C8.48063 9.17961 8.33004 9.1311 8.26718 9.00846L8.01237 8.51145L7.70457 9.02324C7.63356 9.14132 7.48003 9.17955 7.36192 9.10854C7.24384 9.0375 7.2056 8.88397 7.27664 8.76586L7.78214 7.92529V7.53958ZM6.30631 6.34818C5.88309 6.34818 5.53951 6.69176 5.53951 7.11498C5.53951 7.5382 5.88309 7.88178 6.30631 7.88178C6.7295 7.88178 7.07311 7.5382 7.07311 7.11498C7.07311 6.69176 6.7295 6.34818 6.30631 6.34818ZM9.69975 6.34818C9.27652 6.34818 8.93294 6.69176 8.93294 7.11498C8.93294 7.5382 9.27652 7.88178 9.69975 7.88178C10.1229 7.88178 10.4665 7.5382 10.4665 7.11498C10.4665 6.69176 10.1229 6.34818 9.69975 6.34818ZM6.30631 6.84754C6.4539 6.84754 6.57372 6.96739 6.57372 7.11498C6.57372 7.26258 6.4539 7.3824 6.30631 7.3824C6.15871 7.3824 6.03886 7.26258 6.03886 7.11498C6.03886 6.96739 6.15871 6.84754 6.30631 6.84754ZM9.69975 6.84754C9.84734 6.84754 9.96716 6.96739 9.96716 7.11498C9.96716 7.26258 9.84734 7.3824 9.69975 7.3824C9.55215 7.3824 9.4323 7.26258 9.4323 7.11498C9.4323 6.96739 9.55215 6.84754 9.69975 6.84754Z" fill="black"/>
</svg>
