<svg width="100" height="100" viewBox="0 0 100 100" fill="none" xmlns="http://www.w3.org/2000/svg">
<path d="M60.4168 37.5C60.4168 43.2529 55.7531 47.9167 50.0002 47.9167C44.2472 47.9167 39.5835 43.2529 39.5835 37.5C39.5835 31.747 44.2472 27.0833 50.0002 27.0833C55.7531 27.0833 60.4168 31.747 60.4168 37.5Z" stroke="#6E6E6E" stroke-width="2"/>
<path d="M55.2393 72.89C53.8339 74.2433 51.9556 75 50.001 75C48.046 75 46.1677 74.2433 44.7622 72.89C31.8931 60.42 14.6468 46.4896 23.0573 26.2656C27.6047 15.3305 38.5207 8.33334 50.001 8.33334C61.481 8.33334 72.3968 15.3306 76.9443 26.2656C85.3443 46.4642 68.1402 60.4629 55.2393 72.89Z" stroke="#6E6E6E" stroke-width="2"/>
<path d="M75 83.3333C75 87.9358 63.8071 91.6667 50 91.6667C36.1929 91.6667 25 87.9358 25 83.3333" stroke="#6E6E6E" stroke-width="2" stroke-linecap="round"/>
</svg>
