<svg width="38" height="45" viewBox="0 0 38 45" fill="none" xmlns="http://www.w3.org/2000/svg">
<path d="M32.4344 5.68409C35.9225 9.24656 37.9175 14.055 37.9975 19.0928C38.0775 24.1305 36.2362 29.0025 32.8629 32.6786L32.4344 33.1315L23.4772 42.2784C22.3406 43.4386 20.8149 44.1141 19.2089 44.1681C17.603 44.2222 16.037 43.6507 14.8282 42.5695L14.5242 42.2784L5.56486 33.1293C2.00174 29.4898 0 24.5537 0 19.4067C0 14.2597 2.00174 9.32355 5.56486 5.68409C9.12798 2.04463 13.9606 0 18.9996 0C24.0386 0 28.8713 2.04463 32.4344 5.68409Z" fill="url(#paint0_linear_850_17998)"/>
<defs>
<linearGradient id="paint0_linear_850_17998" x1="76.3519" y1="54.3966" x2="29.9987" y2="84.6803" gradientUnits="userSpaceOnUse">
<stop offset="0.260244" stop-color="#9BE0F2"/>
<stop offset="0.922419" stop-color="#A8CEFD"/>
</linearGradient>
</defs>
</svg>
