<svg width="20" height="20" viewBox="0 0 20 20" fill="none" xmlns="http://www.w3.org/2000/svg">
<path d="M14.0625 8.4375H7.58219V6.48031C7.58219 5.14719 8.66687 4.0625 10 4.0625C11.3331 4.0625 12.4178 5.14719 12.4178 6.48031C12.4178 6.99812 12.8375 7.41781 13.3553 7.41781C13.8731 7.41781 14.2928 6.99812 14.2928 6.48031C14.2928 4.11312 12.3672 2.1875 10 2.1875C7.63281 2.1875 5.70719 4.11312 5.70719 6.48031V8.45312C4.78156 8.56719 4.0625 9.35656 4.0625 10.3125V15.625C4.0625 16.6591 4.90344 17.5 5.9375 17.5H14.0625C15.0966 17.5 15.9375 16.6591 15.9375 15.625V10.3125C15.9375 9.27844 15.0966 8.4375 14.0625 8.4375ZM10.6019 12.9897C10.6153 13.0409 10.625 13.0938 10.625 13.1491V15C10.625 15.345 10.345 15.625 10 15.625C9.655 15.625 9.375 15.345 9.375 15V13.1491C9.375 13.0938 9.38437 13.0409 9.39812 12.9897C9.00656 12.7753 8.73812 12.3647 8.73812 11.8869C8.73812 11.19 9.30312 10.625 10 10.625C10.6969 10.625 11.2619 11.19 11.2619 11.8869C11.2619 12.3647 10.9931 12.7753 10.6019 12.9897Z" fill="url(#paint0_linear_780_19380)"/>
<defs>
<linearGradient id="paint0_linear_780_19380" x1="4.51844" y1="5.89344" x2="15.4816" y2="16.8566" gradientUnits="userSpaceOnUse">
<stop stop-color="#00D2FF"/>
<stop offset="1" stop-color="#3A7BD5"/>
</linearGradient>
</defs>
</svg>
