<svg width="16" height="16" viewBox="0 0 16 16" fill="none" xmlns="http://www.w3.org/2000/svg">
<path d="M7.35488 5.28255C7.25354 4.64788 6.68821 1.57321 5.34421 1.34921C4.53354 1.21055 3.44821 1.95988 2.70688 2.70388C1.96288 3.44788 1.21621 4.53321 1.34954 5.34388C1.57354 6.68788 4.64821 7.25321 5.28554 7.35455L12.9602 14.3972C13.1575 14.5759 13.4029 14.6665 13.6482 14.6665C13.9095 14.6665 14.1709 14.5652 14.3682 14.3679C14.7549 13.9812 14.7682 13.3599 14.3975 12.9572L7.35488 5.28255ZM5.31221 6.81855C3.99488 6.59988 2.00021 6.01055 1.87488 5.25588C1.79221 4.75988 2.27754 3.88521 3.08288 3.07988C3.82688 2.33588 4.63221 1.86655 5.13888 1.86655C5.17888 1.86655 5.21888 1.86921 5.25621 1.87455C6.01088 1.99988 6.60288 3.99455 6.82154 5.31188L6.59221 5.54121L5.18154 3.52788C5.09621 3.40788 4.93088 3.37855 4.81088 3.46121C4.69088 3.54655 4.66154 3.71188 4.74421 3.83188L6.20821 5.92255L5.92288 6.20788L4.82154 5.43721C4.70154 5.35188 4.53354 5.38121 4.45088 5.50388C4.36554 5.62388 4.39488 5.79188 4.51754 5.87455L5.54154 6.59188L5.31221 6.81855ZM13.9922 13.9919C13.8082 14.1759 13.5122 14.1839 13.3202 14.0052L5.78954 7.09588L7.09621 5.78921L14.0055 13.3172C14.1815 13.5092 14.1762 13.8052 13.9922 13.9919Z" fill="black"/>
</svg>
