<svg width="32" height="32" viewBox="0 0 32 32" fill="none" xmlns="http://www.w3.org/2000/svg">
<path d="M3.98925 21.7893C4.1853 22.2839 4.22895 22.8258 4.11458 23.3453L2.69458 27.732C2.64883 27.9545 2.66066 28.1849 2.72895 28.4015C2.79724 28.6181 2.91973 28.8137 3.0848 28.9697C3.24988 29.1257 3.45206 29.2369 3.67218 29.2929C3.8923 29.3488 4.12306 29.3476 4.34258 29.2893L8.89325 27.9587C9.38353 27.8614 9.89129 27.9039 10.3586 28.0813C13.2058 29.411 16.4311 29.6923 19.4654 28.8756C22.4998 28.059 25.1483 26.1969 26.9435 23.6178C28.7388 21.0388 29.5654 17.9085 29.2776 14.7794C28.9899 11.6502 27.6062 8.72329 25.3707 6.51492C23.1352 4.30656 20.1915 2.95871 17.0591 2.70919C13.9267 2.45967 10.8068 3.3245 8.24984 5.15111C5.69291 6.97772 3.86329 9.64872 3.08377 12.6928C2.30425 15.737 2.62494 18.9586 3.98925 21.7893Z" stroke="#6E6E6E" stroke-width="1.5" stroke-linecap="round" stroke-linejoin="round"/>
</svg>
