<svg width="20" height="20" viewBox="0 0 20 20" fill="none" xmlns="http://www.w3.org/2000/svg">
<g clip-path="url(#clip0_1009_5154)">
<path d="M15.8047 12.7194C16.4262 11.6793 16.8386 10.3638 16.9186 9.06211C16.9694 8.22666 16.7832 7.34965 16.3801 6.52497C15.7477 5.22947 14.6615 4.50171 13.6122 3.79857C12.829 3.27391 12.0889 2.77848 11.5658 2.07072L11.472 1.94456C11.1627 1.52914 10.8134 1.05833 10.7581 0.662906C10.7027 0.26287 10.3396 -0.0217705 9.9426 0.00130852C9.53948 0.0290033 9.22715 0.362879 9.22715 0.767531V14.4764C8.58247 14.0856 7.78856 13.8456 6.91925 13.8456C4.79906 13.8456 3.07275 15.2257 3.07275 16.9228C3.07275 18.6199 4.79906 20 6.91925 20C9.03944 20 10.7657 18.6199 10.7657 16.9228V7.95586C11.9212 8.39744 13.8122 9.52215 14.3322 12.1485C14.2353 12.2916 14.143 12.4455 14.0353 12.5686C13.7537 12.8871 13.7845 13.3733 14.1045 13.6533C14.4215 13.9364 14.9077 13.9025 15.1892 13.5841C15.3954 13.3502 15.5785 13.0763 15.7539 12.7901C15.7723 12.7686 15.7893 12.7455 15.8047 12.7194Z" fill="#FFC107"/>
</g>
<defs>
<clipPath id="clip0_1009_5154">
<rect width="20" height="20" fill="white"/>
</clipPath>
</defs>
</svg>
