<svg width="32" height="32" viewBox="0 0 32 32" fill="none" xmlns="http://www.w3.org/2000/svg">
<path d="M6.6665 21.3334L13.3332 17.3334M18.6665 14.6667L25.3332 10.6667M15.9998 6.6667V13.3334M15.9998 18.6667V25.3334M6.6665 10.6667L13.3332 14.6667M18.6665 17.3334L25.3332 21.3334" stroke="#707070" stroke-width="1.5" stroke-linejoin="round"/>
<path d="M27.3332 12V19.3334M17.9998 27.3334L25.3332 23.3334M5.99984 23.3334L13.9998 27.3334M4.6665 20V12M5.99984 8.6667L13.9998 4.6667M25.9998 8.6667L17.9998 4.6667" stroke="#707070" stroke-width="1.5" stroke-linejoin="round"/>
<path d="M16 6.6667C17.1046 6.6667 18 5.77127 18 4.6667C18 3.56213 17.1046 2.6667 16 2.6667C14.8954 2.6667 14 3.56213 14 4.6667C14 5.77127 14.8954 6.6667 16 6.6667Z" stroke="#707070" stroke-width="1.5" stroke-linejoin="round"/>
<path d="M16 29.3333C17.1046 29.3333 18 28.4379 18 27.3333C18 26.2287 17.1046 25.3333 16 25.3333C14.8954 25.3333 14 26.2287 14 27.3333C14 28.4379 14.8954 29.3333 16 29.3333Z" stroke="#707070" stroke-width="1.5" stroke-linejoin="round"/>
<path d="M4.6665 12C5.77107 12 6.6665 11.1046 6.6665 10C6.6665 8.89543 5.77107 8 4.6665 8C3.56193 8 2.6665 8.89543 2.6665 10C2.6665 11.1046 3.56193 12 4.6665 12Z" stroke="#707070" stroke-width="1.5" stroke-linejoin="round"/>
<path d="M27.3335 12C28.4381 12 29.3335 11.1046 29.3335 10C29.3335 8.89543 28.4381 8 27.3335 8C26.2289 8 25.3335 8.89543 25.3335 10C25.3335 11.1046 26.2289 12 27.3335 12Z" stroke="#707070" stroke-width="1.5" stroke-linejoin="round"/>
<path d="M27.3335 24C28.4381 24 29.3335 23.1046 29.3335 22C29.3335 20.8954 28.4381 20 27.3335 20C26.2289 20 25.3335 20.8954 25.3335 22C25.3335 23.1046 26.2289 24 27.3335 24Z" stroke="#707070" stroke-width="1.5" stroke-linejoin="round"/>
<path d="M4.6665 24C5.77107 24 6.6665 23.1046 6.6665 22C6.6665 20.8954 5.77107 20 4.6665 20C3.56193 20 2.6665 20.8954 2.6665 22C2.6665 23.1046 3.56193 24 4.6665 24Z" stroke="#707070" stroke-width="1.5" stroke-linejoin="round"/>
<path d="M16.0002 13L18.6668 14.5V17.5L16.0002 19L13.3335 17.5V14.5L16.0002 13Z" stroke="#707070" stroke-width="1.5" stroke-linejoin="round"/>
</svg>
