<svg width="32" height="32" viewBox="0 0 32 32" fill="none" xmlns="http://www.w3.org/2000/svg">
<path d="M13.3333 12.3404C10.1417 10.6112 6.77408 7.61907 4 2.6667M15.4873 5.89205C12.774 4.11137 9.46323 4.85557 8.09251 7.55426C6.72179 10.253 7.81019 13.8842 10.5235 15.6648C12.98 17.277 18.3563 18.9439 22.6667 14.3267C18.6275 12.6065 18.2007 7.67271 15.4873 5.89205Z" stroke="#707070" stroke-width="1.5" stroke-linecap="round" stroke-linejoin="round"/>
<path d="M5.33333 14.6667C4.48124 15.2946 4 16.0072 4 16.7627C4 19.287 9.37259 21.3334 16 21.3334C22.6275 21.3334 28 19.287 28 16.7627C28 16.0072 27.5188 15.2946 26.6667 14.6667" stroke="#707070" stroke-width="1.5" stroke-linecap="round"/>
<path d="M28 17.3333C28 22.1021 24.6581 26.2862 21.0601 28.6429C20.3203 29.1276 19.4405 29.3333 18.5561 29.3333H13.4439C12.5595 29.3333 11.6797 29.1276 10.9398 28.6429C7.34187 26.2862 4 22.1021 4 17.3333" stroke="#707070" stroke-width="1.5" stroke-linecap="round"/>
</svg>
