<svg width="32" height="32" viewBox="0 0 32 32" fill="none" xmlns="http://www.w3.org/2000/svg">
<path d="M29.3332 16C29.3332 8.63623 23.3636 2.6667 15.9998 2.6667C8.63604 2.6667 2.6665 8.63623 2.6665 16C2.6665 23.3638 8.63604 29.3334 15.9998 29.3334C17.1221 29.3334 18.6665 29.4884 18.6665 28C18.6665 27.188 18.2441 26.5616 17.8246 25.9392C17.2108 25.0287 16.6029 24.1271 17.3332 22.6667C18.2221 20.889 19.7036 20.889 21.9752 20.889C23.111 20.889 24.4444 20.889 25.9998 20.6667C28.8012 20.2666 29.3332 18.5446 29.3332 16Z" stroke="#707070" stroke-width="1.5"/>
<path d="M9.3335 20.0032L9.34507 20" stroke="#707070" stroke-width="1.5" stroke-linecap="round" stroke-linejoin="round"/>
<path d="M12.6665 13.3333C13.7711 13.3333 14.6665 12.4379 14.6665 11.3333C14.6665 10.2287 13.7711 9.3333 12.6665 9.3333C11.5619 9.3333 10.6665 10.2287 10.6665 11.3333C10.6665 12.4379 11.5619 13.3333 12.6665 13.3333Z" stroke="#707070" stroke-width="1.5"/>
<path d="M22 14.6667C23.1046 14.6667 24 13.7713 24 12.6667C24 11.5621 23.1046 10.6667 22 10.6667C20.8954 10.6667 20 11.5621 20 12.6667C20 13.7713 20.8954 14.6667 22 14.6667Z" stroke="#707070" stroke-width="1.5"/>
</svg>
