<svg width="32" height="32" viewBox="0 0 32 32" fill="none" xmlns="http://www.w3.org/2000/svg">
<path d="M15.9998 16C17.4143 16 18.7709 15.4381 19.7711 14.4379C20.7713 13.4377 21.3332 12.0811 21.3332 10.6667C21.3332 9.25217 20.7713 7.89562 19.7711 6.89543C18.7709 5.89523 17.4143 5.33333 15.9998 5.33333C14.5853 5.33333 13.2288 5.89523 12.2286 6.89543C11.2284 7.89562 10.6665 9.25217 10.6665 10.6667C10.6665 12.0811 11.2284 13.4377 12.2286 14.4379C13.2288 15.4381 14.5853 16 15.9998 16Z" stroke="#6E6E6E" stroke-width="1.5" stroke-linecap="round" stroke-linejoin="round"/>
<path d="M29.3334 23.04C29.3332 23.8423 29.016 24.612 28.4507 25.1813C27.1494 26.4933 25.8867 27.8613 24.536 29.1253C24.3852 29.2631 24.1871 29.3376 23.9828 29.3334C23.7786 29.3291 23.5837 29.2465 23.4387 29.1027L19.548 25.1827C18.9822 24.6131 18.6646 23.8429 18.6646 23.04C18.6646 22.2371 18.9822 21.4669 19.548 20.8973C19.8303 20.6128 20.166 20.387 20.5359 20.2329C20.9059 20.0789 21.3026 19.9995 21.7034 19.9995C22.1041 19.9995 22.5009 20.0789 22.8708 20.2329C23.2407 20.387 23.5765 20.6128 23.8587 20.8973L24 21.04L24.1414 20.8973C24.5652 20.4698 25.1066 20.178 25.6967 20.0589C26.2868 19.9397 26.899 19.9988 27.4555 20.2284C28.012 20.4581 28.4877 20.848 28.822 21.3486C29.1564 21.8493 29.3344 22.438 29.3334 23.04Z" stroke="#6E6E6E" stroke-width="1.5" stroke-linejoin="round"/>
<path d="M6.6665 26.6667V25.3333C6.66618 23.7586 7.06428 22.2094 7.82375 20.83C8.58322 19.4505 9.67937 18.2857 11.0101 17.4438C12.3409 16.602 13.8631 16.1105 15.4349 16.0152C17.0067 15.9199 18.5771 16.2238 19.9998 16.8987" stroke="#6E6E6E" stroke-width="1.5" stroke-linecap="round" stroke-linejoin="round"/>
</svg>
