<svg width="24" height="24" viewBox="0 0 24 24" fill="none" xmlns="http://www.w3.org/2000/svg">
<path d="M4 7.03285C4 6.66968 4.19689 6.33506 4.51436 6.15869L11.5144 2.2698C11.8164 2.10201 12.1836 2.10201 12.4856 2.2698L19.4856 6.15869C19.8031 6.33506 20 6.66968 20 7.03285V11.6715C20 15.3032 18.0311 18.6494 14.8564 20.4131L12.4856 21.7302C12.1836 21.898 11.8164 21.898 11.5144 21.7302L9.14357 20.4131C5.96892 18.6494 4 15.3032 4 11.6715V7.03285Z" stroke="url(#paint0_linear_686_34411)" stroke-width="1.5"/>
<path d="M9.5 12L11.5 14L15.5 10" stroke="url(#paint1_linear_686_34411)" stroke-width="1.5" stroke-linecap="round" stroke-linejoin="round"/>
<defs>
<linearGradient id="paint0_linear_686_34411" x1="36.1481" y1="26.6296" x2="15.8082" y2="38.9871" gradientUnits="userSpaceOnUse">
<stop offset="0.160244" stop-color="#8663F6"/>
<stop offset="0.535257" stop-color="#C470F5"/>
<stop offset="0.922419" stop-color="#57C2FF"/>
</linearGradient>
<linearGradient id="paint1_linear_686_34411" x1="12.4074" y1="5.05556" x2="16.6049" y2="6.94265" gradientUnits="userSpaceOnUse">
<stop offset="0.160244" stop-color="#8663F6"/>
<stop offset="0.535257" stop-color="#C470F5"/>
<stop offset="0.922419" stop-color="#57C2FF"/>
</linearGradient>
</defs>
</svg>
