<svg width="32" height="32" viewBox="0 0 32 32" fill="none" xmlns="http://www.w3.org/2000/svg">
<path d="M16.0002 11.6667C15.0802 11.6667 14.3335 12.4133 14.3335 13.3333V13.476C14.3335 13.7412 14.2281 13.9956 14.0406 14.1831C13.8531 14.3706 13.5987 14.476 13.3335 14.476C13.0683 14.476 12.8139 14.3706 12.6264 14.1831C12.4389 13.9956 12.3335 13.7412 12.3335 13.476V13.3333C12.3335 12.3609 12.7198 11.4282 13.4074 10.7406C14.0951 10.053 15.0277 9.66667 16.0002 9.66667H16.1548C16.8721 9.667 17.5721 9.88696 18.1607 10.297C18.7492 10.707 19.1982 11.2874 19.447 11.9601C19.6959 12.6328 19.7328 13.3657 19.5528 14.06C19.3728 14.7543 18.9845 15.3769 18.4402 15.844L17.4135 16.724C17.2847 16.8358 17.1812 16.9738 17.1099 17.1288C17.0387 17.2837 17.0012 17.4521 17.0002 17.6227V18.3333C17.0002 18.5986 16.8948 18.8529 16.7073 19.0404C16.5197 19.228 16.2654 19.3333 16.0002 19.3333C15.7349 19.3333 15.4806 19.228 15.2931 19.0404C15.1055 18.8529 15.0002 18.5986 15.0002 18.3333V17.6227C15.0002 16.6933 15.4055 15.8107 16.1108 15.2067L17.1388 14.3267C17.3734 14.1256 17.5407 13.8575 17.6184 13.5585C17.696 13.2595 17.6801 12.9438 17.5729 12.6541C17.4657 12.3643 17.2724 12.1144 17.0188 11.9378C16.7653 11.7613 16.4638 11.6667 16.1548 11.6667H16.0002ZM16.0002 22.6667C16.3538 22.6667 16.6929 22.5262 16.943 22.2761C17.193 22.0261 17.3335 21.687 17.3335 21.3333C17.3335 20.9797 17.193 20.6406 16.943 20.3905C16.6929 20.1405 16.3538 20 16.0002 20C15.6465 20 15.3074 20.1405 15.0574 20.3905C14.8073 20.6406 14.6668 20.9797 14.6668 21.3333C14.6668 21.687 14.8073 22.0261 15.0574 22.2761C15.3074 22.5262 15.6465 22.6667 16.0002 22.6667Z" fill="#6E6E6E"/>
<path d="M4.3335 16C4.3335 12.9058 5.56266 9.93834 7.75058 7.75042C9.93851 5.56249 12.906 4.33333 16.0002 4.33333C19.0944 4.33333 22.0618 5.56249 24.2497 7.75042C26.4377 9.93834 27.6668 12.9058 27.6668 16C27.6668 19.0942 26.4377 22.0617 24.2497 24.2496C22.0618 26.4375 19.0944 27.6667 16.0002 27.6667C12.906 27.6667 9.93851 26.4375 7.75058 24.2496C5.56266 22.0617 4.3335 19.0942 4.3335 16ZM16.0002 6.33333C14.7307 6.33333 13.4737 6.58336 12.3009 7.06916C11.1281 7.55495 10.0624 8.267 9.1648 9.16463C8.26716 10.0623 7.55512 11.1279 7.06933 12.3007C6.58353 13.4735 6.3335 14.7306 6.3335 16C6.3335 17.2694 6.58353 18.5265 7.06933 19.6993C7.55512 20.8721 8.26716 21.9377 9.1648 22.8354C10.0624 23.733 11.1281 24.445 12.3009 24.9308C13.4737 25.4166 14.7307 25.6667 16.0002 25.6667C18.5639 25.6667 21.0227 24.6482 22.8355 22.8354C24.6484 21.0225 25.6668 18.5638 25.6668 16C25.6668 13.4362 24.6484 10.9775 22.8355 9.16463C21.0227 7.35178 18.5639 6.33333 16.0002 6.33333Z" fill="#6E6E6E"/>
</svg>
