<svg width="40" height="40" viewBox="0 0 40 40" fill="none" xmlns="http://www.w3.org/2000/svg">
<path d="M8.33301 34.1666H31.6663" stroke="#FEFEFE" stroke-width="2" stroke-linecap="round" stroke-linejoin="round"/>
<path d="M28.1192 29.1667H11.8802C10.1666 29.1667 9.30986 29.1667 8.66006 28.7057C8.01024 28.2447 7.72716 27.436 7.16099 25.8187L3.41839 15.1278C3.21921 14.5388 3.37472 13.8894 3.82009 13.4503C4.38057 12.8978 5.25876 12.812 5.91829 13.2455L7.97216 14.5953C10.0453 15.9579 11.0819 16.6391 12.1299 16.3915C13.1779 16.1439 13.8 15.0707 15.0441 12.9244L18.735 6.55691C18.9943 6.10949 19.477 5.83337 19.9997 5.83337C20.5223 5.83337 21.005 6.10949 21.2643 6.55691L24.9552 12.9244C26.1993 15.0707 26.8213 16.1439 27.8693 16.3915C28.9175 16.6391 29.954 15.9579 32.0272 14.5953L34.081 13.2455C34.7405 12.812 35.6188 12.8978 36.1793 13.4503C36.6247 13.8894 36.7802 14.5388 36.581 15.1278L32.8383 25.8187C32.2722 27.436 31.9892 28.2447 31.3393 28.7057C30.6895 29.1667 29.8327 29.1667 28.1192 29.1667Z" stroke="#FEFEFE" stroke-width="2" stroke-linecap="round" stroke-linejoin="round"/>
</svg>
