<svg width="80" height="80" viewBox="0 0 80 80" fill="none" xmlns="http://www.w3.org/2000/svg">
<path d="M73.5105 7.69067C72.3243 7.69757 71.1891 8.17384 70.3531 9.01544C70.3531 9.01544 51.5744 27.7577 40.1705 39.1539L32.1336 31.117C30.3824 29.3703 27.5479 29.3703 25.7967 31.117C24.05 32.8682 24.05 35.7026 25.7967 37.4538L37.0131 48.6702C38.7644 50.4167 41.5987 50.4167 43.3499 48.6702C53.9604 38.0636 76.69 15.3523 76.69 15.3523C78.4366 13.6011 78.4366 10.7666 76.69 9.01544C75.8486 8.16849 74.7044 7.69171 73.5105 7.69067Z" fill="url(#paint0_linear_1261_5042)"/>
<path d="M37.8983 4.1106C18.1286 4.11077 2 20.2217 2 39.9915C2 59.7609 18.1286 75.8896 37.8983 75.8896C54.1217 75.8896 68.3651 64.9565 72.5639 49.2857C73.3759 46.2562 73.7789 43.128 73.779 39.9915C73.779 37.5158 71.7739 35.5081 69.2983 35.5049C66.8227 35.5081 64.8176 37.5158 64.8176 39.9915C64.8174 42.344 64.4977 44.6942 63.8887 46.9665C60.7298 58.7561 50.1038 66.9281 37.8983 66.9283C22.9781 66.9281 10.9614 54.9117 10.9614 39.9915C10.9614 25.0713 22.978 13.0721 37.8983 13.0721C40.2511 13.0723 42.5834 13.3928 44.8559 14.0008C47.2492 14.6425 49.7096 13.2227 50.3514 10.8293L50.3531 10.8229C50.9948 8.42955 49.5748 5.96924 47.1815 5.32755L47.1751 5.32583C44.1451 4.51406 41.0353 4.11077 37.8983 4.1106Z" fill="url(#paint1_linear_1261_5042)"/>
<defs>
<linearGradient id="paint0_linear_1261_5042" x1="107.2" y1="156.8" x2="13.5273" y2="166.466" gradientUnits="userSpaceOnUse">
<stop offset="0.236562" stop-color="#C470F5"/>
<stop offset="0.576286" stop-color="#8663F6"/>
<stop offset="1" stop-color="#57C2FF"/>
</linearGradient>
<linearGradient id="paint1_linear_1261_5042" x1="107.2" y1="156.8" x2="13.5273" y2="166.466" gradientUnits="userSpaceOnUse">
<stop offset="0.236562" stop-color="#C470F5"/>
<stop offset="0.576286" stop-color="#8663F6"/>
<stop offset="1" stop-color="#57C2FF"/>
</linearGradient>
</defs>
</svg>
