<svg width="24" height="24" viewBox="0 0 24 24" fill="none" xmlns="http://www.w3.org/2000/svg">
<path d="M17.5823 5.25C19.6085 5.25004 20.7648 7.56361 19.5491 9.18457C19.0305 9.87627 18.7504 10.7175 18.7503 11.582V18C18.7503 20.6233 16.6235 22.7498 14.0003 22.75H10.0003C7.37694 22.75 5.2503 20.6234 5.2503 18V11.582C5.25024 10.7174 4.96923 9.87631 4.45049 9.18457C3.23485 7.56372 4.39135 5.25033 6.41729 5.25H17.5823ZM10.0003 10.25C9.58608 10.25 9.2503 10.5858 9.2503 11L9.24932 17C9.24932 17.4141 9.58533 17.7497 9.99932 17.75C10.4135 17.75 10.7493 17.4142 10.7493 17L10.7503 11C10.7503 10.5859 10.4143 10.2503 10.0003 10.25ZM14.0003 10.25C13.5861 10.25 13.2503 10.5858 13.2503 11L13.2493 17C13.2493 17.4141 13.5853 17.7497 13.9993 17.75C14.4135 17.75 14.7493 17.4142 14.7493 17L14.7503 11C14.7503 10.5859 14.4143 10.2503 14.0003 10.25Z" fill="url(#paint0_linear_944_6496)"/>
<path d="M16 6L15.4558 4.36754C15.1836 3.55086 14.4193 3 13.5585 3H10.4415C9.58066 3 8.81638 3.55086 8.54415 4.36754L8 6" stroke="url(#paint1_linear_944_6496)" stroke-width="1.5" stroke-linecap="round"/>
<defs>
<linearGradient id="paint0_linear_944_6496" x1="36.2858" y1="26.8009" x2="17.4595" y2="39.9473" gradientUnits="userSpaceOnUse">
<stop offset="0.160244" stop-color="#8663F6"/>
<stop offset="0.535257" stop-color="#C470F5"/>
<stop offset="0.922419" stop-color="#57C2FF"/>
</linearGradient>
<linearGradient id="paint1_linear_944_6496" x1="24.0741" y1="6.69444" x2="21.3446" y2="12.2221" gradientUnits="userSpaceOnUse">
<stop offset="0.160244" stop-color="#8663F6"/>
<stop offset="0.535257" stop-color="#C470F5"/>
<stop offset="0.922419" stop-color="#57C2FF"/>
</linearGradient>
</defs>
</svg>
