<svg width="16" height="16" viewBox="0 0 16 16" fill="none" xmlns="http://www.w3.org/2000/svg">
<circle cx="2.2695" cy="2.2695" r="2.2695" transform="matrix(-1 0 0 1 10.4116 3.33447)" stroke="#707070"/>
<path d="M4.17041 11.2407C4.17041 10.7526 4.47728 10.3171 4.93699 10.153C7.00958 9.41275 9.2745 9.41275 11.3471 10.153C11.8068 10.3171 12.1137 10.7526 12.1137 11.2407V11.9871C12.1137 12.6608 11.517 13.1784 10.85 13.0831L10.6276 13.0513C8.97894 12.8158 7.30514 12.8158 5.65644 13.0513L5.43407 13.0831C4.76712 13.1784 4.17041 12.6608 4.17041 11.9871V11.2407Z" stroke="#707070"/>
<path d="M11.5464 7.93599C12.5312 7.93599 13.3296 7.13763 13.3296 6.15281C13.3296 5.16799 12.5312 4.36963 11.5464 4.36963" stroke="#707070" stroke-linecap="round"/>
<path d="M13.4994 12.0042L13.6741 12.0291C14.1981 12.104 14.667 11.6974 14.667 11.168V10.5816C14.667 10.198 14.4259 9.85589 14.0647 9.72689C13.7044 9.59822 13.3367 9.49801 12.9648 9.42627" stroke="#707070" stroke-linecap="round"/>
<path d="M4.45408 7.93599C3.46926 7.93599 2.6709 7.13763 2.6709 6.15281C2.6709 5.16799 3.46926 4.36963 4.45408 4.36963" stroke="#707070" stroke-linecap="round"/>
<path d="M2.50111 12.0042L2.3264 12.0291C1.80236 12.104 1.33352 11.6974 1.33352 11.168V10.5816C1.33352 10.198 1.57463 9.85589 1.93583 9.72689C2.29613 9.59822 2.66382 9.49801 3.03564 9.42627" stroke="#707070" stroke-linecap="round"/>
</svg>
